  0
SECTION
  2
HEADER
  9
$ACADVER
  1
AC1024
  9
$ACADMAINTVER
 70
     6
  9
$DWGCODEPAGE
  3
ANSI_1252
  9
$INSBASE
 10
0.0
 20
0.0
 30
0.0
  9
$EXTMIN
 10
1.000000000000000E+20
 20
1.000000000000000E+20
 30
1.000000000000000E+20
  9
$EXTMAX
 10
-1.000000000000000E+20
 20
-1.000000000000000E+20
 30
-1.000000000000000E+20
  9
$LIMMIN
 10
0.0
 20
0.0
  9
$LIMMAX
 10
12.0
 20
9.0
  9
$ORTHOMODE
 70
     0
  9
$REGENMODE
 70
     1
  9
$FILLMODE
 70
     1
  9
$QTEXTMODE
 70
     0
  9
$MIRRTEXT
 70
     1
  9
$LTSCALE
 40
1.0
  9
$ATTMODE
 70
     1
  9
$TEXTSIZE
 40
0.2
  9
$TRACEWID
 40
0.05
  9
$TEXTSTYLE
  7
Standard
  9
$CLAYER
  8
0
  9
$CELTYPE
  6
ByLayer
  9
$CECOLOR
 62
   256
  9
$CELTSCALE
 40
1.0
  9
$DISPSILH
 70
     0
  9
$DIMSCALE
 40
1.0
  9
$DIMASZ
 40
0.18
  9
$DIMEXO
 40
0.0625
  9
$DIMDLI
 40
0.38
  9
$DIMRND
 40
0.0
  9
$DIMDLE
 40
0.0
  9
$DIMEXE
 40
0.18
  9
$DIMTP
 40
0.0
  9
$DIMTM
 40
0.0
  9
$DIMTXT
 40
0.18
  9
$DIMCEN
 40
0.09
  9
$DIMTSZ
 40
0.0
  9
$DIMTOL
 70
     0
  9
$DIMLIM
 70
     0
  9
$DIMTIH
 70
     1
  9
$DIMTOH
 70
     1
  9
$DIMSE1
 70
     0
  9
$DIMSE2
 70
     0
  9
$DIMTAD
 70
     0
  9
$DIMZIN
 70
     0
  9
$DIMBLK
  1

  9
$DIMASO
 70
     1
  9
$DIMSHO
 70
     1
  9
$DIMPOST
  1

  9
$DIMAPOST
  1

  9
$DIMALT
 70
     0
  9
$DIMALTD
 70
     2
  9
$DIMALTF
 40
25.4
  9
$DIMLFAC
 40
1.0
  9
$DIMTOFL
 70
     0
  9
$DIMTVP
 40
0.0
  9
$DIMTIX
 70
     0
  9
$DIMSOXD
 70
     0
  9
$DIMSAH
 70
     0
  9
$DIMBLK1
  1

  9
$DIMBLK2
  1

  9
$DIMSTYLE
  2
Standard
  9
$DIMCLRD
 70
     0
  9
$DIMCLRE
 70
     0
  9
$DIMCLRT
 70
     0
  9
$DIMTFAC
 40
1.0
  9
$DIMGAP
 40
0.09
  9
$DIMJUST
 70
     0
  9
$DIMSD1
 70
     0
  9
$DIMSD2
 70
     0
  9
$DIMTOLJ
 70
     1
  9
$DIMTZIN
 70
     0
  9
$DIMALTZ
 70
     0
  9
$DIMALTTZ
 70
     0
  9
$DIMUPT
 70
     0
  9
$DIMDEC
 70
     4
  9
$DIMTDEC
 70
     4
  9
$DIMALTU
 70
     2
  9
$DIMALTTD
 70
     2
  9
$DIMTXSTY
  7
Standard
  9
$DIMAUNIT
 70
     0
  9
$DIMADEC
 70
     0
  9
$DIMALTRND
 40
0.0
  9
$DIMAZIN
 70
     0
  9
$DIMDSEP
 70
    46
  9
$DIMATFIT
 70
     3
  9
$DIMFRAC
 70
     0
  9
$DIMLDRBLK
  1

  9
$DIMLUNIT
 70
     2
  9
$DIMLWD
 70
    -2
  9
$DIMLWE
 70
    -2
  9
$DIMTMOVE
 70
     0
  9
$DIMFXL
 40
1.0
  9
$DIMFXLON
 70
     0
  9
$DIMJOGANG
 40
0.7853981633974483
  9
$DIMTFILL
 70
     0
  9
$DIMTFILLCLR
 70
     0
  9
$DIMARCSYM
 70
     0
  9
$DIMLTYPE
  6

  9
$DIMLTEX1
  6

  9
$DIMLTEX2
  6

  9
$DIMTXTDIRECTION
 70
     0
  9
$LUNITS
 70
     2
  9
$LUPREC
 70
     4
  9
$SKETCHINC
 40
0.1
  9
$FILLETRAD
 40
0.5
  9
$AUNITS
 70
     0
  9
$AUPREC
 70
     0
  9
$MENU
  1
.
  9
$ELEVATION
 40
0.0
  9
$PELEVATION
 40
0.0
  9
$THICKNESS
 40
0.0
  9
$LIMCHECK
 70
     0
  9
$CHAMFERA
 40
0.5
  9
$CHAMFERB
 40
0.5
  9
$CHAMFERC
 40
1.0
  9
$CHAMFERD
 40
0.0
  9
$SKPOLY
 70
     0
  9
$TDCREATE
 40
2458473.453976458
  9
$TDUCREATE
 40
2458473.412309792
  9
$TDUPDATE
 40
2458473.453977674
  9
$TDUUPDATE
 40
2458473.412311007
  9
$TDINDWG
 40
0.0000000116
  9
$TDUSRTIMER
 40
0.0000000116
  9
$USRTIMER
 70
     1
  9
$ANGBASE
 50
0.0
  9
$ANGDIR
 70
     0
  9
$PDMODE
 70
     0
  9
$PDSIZE
 40
0.0
  9
$PLINEWID
 40
0.0
  9
$SPLFRAME
 70
     0
  9
$SPLINETYPE
 70
     6
  9
$SPLINESEGS
 70
     8
  9
$HANDSEED
  5
9A
  9
$SURFTAB1
 70
     6
  9
$SURFTAB2
 70
     6
  9
$SURFTYPE
 70
     6
  9
$SURFU
 70
     6
  9
$SURFV
 70
     6
  9
$UCSBASE
  2

  9
$UCSNAME
  2

  9
$UCSORG
 10
0.0
 20
0.0
 30
0.0
  9
$UCSXDIR
 10
1.0
 20
0.0
 30
0.0
  9
$UCSYDIR
 10
0.0
 20
1.0
 30
0.0
  9
$UCSORTHOREF
  2

  9
$UCSORTHOVIEW
 70
     0
  9
$UCSORGTOP
 10
0.0
 20
0.0
 30
0.0
  9
$UCSORGBOTTOM
 10
0.0
 20
0.0
 30
0.0
  9
$UCSORGLEFT
 10
0.0
 20
0.0
 30
0.0
  9
$UCSORGRIGHT
 10
0.0
 20
0.0
 30
0.0
  9
$UCSORGFRONT
 10
0.0
 20
0.0
 30
0.0
  9
$UCSORGBACK
 10
0.0
 20
0.0
 30
0.0
  9
$PUCSBASE
  2

  9
$PUCSNAME
  2

  9
$PUCSORG
 10
0.0
 20
0.0
 30
0.0
  9
$PUCSXDIR
 10
1.0
 20
0.0
 30
0.0
  9
$PUCSYDIR
 10
0.0
 20
1.0
 30
0.0
  9
$PUCSORTHOREF
  2

  9
$PUCSORTHOVIEW
 70
     0
  9
$PUCSORGTOP
 10
0.0
 20
0.0
 30
0.0
  9
$PUCSORGBOTTOM
 10
0.0
 20
0.0
 30
0.0
  9
$PUCSORGLEFT
 10
0.0
 20
0.0
 30
0.0
  9
$PUCSORGRIGHT
 10
0.0
 20
0.0
 30
0.0
  9
$PUCSORGFRONT
 10
0.0
 20
0.0
 30
0.0
  9
$PUCSORGBACK
 10
0.0
 20
0.0
 30
0.0
  9
$USERI1
 70
     0
  9
$USERI2
 70
     0
  9
$USERI3
 70
     0
  9
$USERI4
 70
     0
  9
$USERI5
 70
     0
  9
$USERR1
 40
0.0
  9
$USERR2
 40
0.0
  9
$USERR3
 40
0.0
  9
$USERR4
 40
0.0
  9
$USERR5
 40
0.0
  9
$WORLDVIEW
 70
     1
  9
$SHADEDGE
 70
     3
  9
$SHADEDIF
 70
    70
  9
$TILEMODE
 70
     1
  9
$MAXACTVP
 70
    64
  9
$PINSBASE
 10
0.0
 20
0.0
 30
0.0
  9
$PLIMCHECK
 70
     0
  9
$PEXTMIN
 10
1.000000000000000E+20
 20
1.000000000000000E+20
 30
1.000000000000000E+20
  9
$PEXTMAX
 10
-1.000000000000000E+20
 20
-1.000000000000000E+20
 30
-1.000000000000000E+20
  9
$PLIMMIN
 10
0.0
 20
0.0
  9
$PLIMMAX
 10
12.0
 20
9.0
  9
$UNITMODE
 70
     0
  9
$VISRETAIN
 70
     1
  9
$PLINEGEN
 70
     0
  9
$PSLTSCALE
 70
     1
  9
$TREEDEPTH
 70
  3020
  9
$CMLSTYLE
  2
Standard
  9
$CMLJUST
 70
     0
  9
$CMLSCALE
 40
1.0
  9
$PROXYGRAPHICS
 70
     1
  9
$MEASUREMENT
 70
     0
  9
$CELWEIGHT
370
    -1
  9
$ENDCAPS
280
     0
  9
$JOINSTYLE
280
     0
  9
$LWDISPLAY
290
     1
  9
$INSUNITS
 70
     1
  9
$HYPERLINKBASE
  1

  9
$STYLESHEET
  1

  9
$XEDIT
290
     1
  9
$CEPSNTYPE
380
     0
  9
$PSTYLEMODE
290
     1
  9
$FINGERPRINTGUID
  2
{150C02C2-931F-46C7-AA53-B44F552CAB48}
  9
$VERSIONGUID
  2
{FAEB1C32-E019-11D5-929B-00C0DF256EC4}
  9
$EXTNAMES
290
     1
  9
$PSVPSCALE
 40
0.0
  9
$OLESTARTUP
290
     0
  9
$SORTENTS
280
   127
  9
$INDEXCTL
280
     0
  9
$HIDETEXT
280
     1
  9
$XCLIPFRAME
280
     2
  9
$HALOGAP
280
     0
  9
$OBSCOLOR
 70
   257
  9
$OBSLTYPE
280
     0
  9
$INTERSECTIONDISPLAY
280
     0
  9
$INTERSECTIONCOLOR
 70
   257
  9
$DIMASSOC
280
     2
  9
$PROJECTNAME
  1

  9
$CAMERADISPLAY
290
     0
  9
$LENSLENGTH
 40
50.0
  9
$CAMERAHEIGHT
 40
0.0
  9
$STEPSPERSEC
 40
2.0
  9
$STEPSIZE
 40
6.0
  9
$3DDWFPREC
 40
2.0
  9
$PSOLWIDTH
 40
0.25
  9
$PSOLHEIGHT
 40
4.0
  9
$LOFTANG1
 40
1.570796326794897
  9
$LOFTANG2
 40
1.570796326794897
  9
$LOFTMAG1
 40
0.0
  9
$LOFTMAG2
 40
0.0
  9
$LOFTPARAM
 70
     7
  9
$LOFTNORMALS
280
     1
  9
$LATITUDE
 40
37.795
  9
$LONGITUDE
 40
-122.394
  9
$NORTHDIRECTION
 40
0.0
  9
$TIMEZONE
 70
 -8000
  9
$LIGHTGLYPHDISPLAY
280
     1
  9
$TILEMODELIGHTSYNCH
280
     1
  9
$CMATERIAL
347
3C
  9
$SOLIDHIST
280
     1
  9
$SHOWHIST
280
     1
  9
$DWFFRAME
280
     2
  9
$DGNFRAME
280
     2
  9
$REALWORLDSCALE
290
     1
  9
$INTERFERECOLOR
 62
   256
  9
$CSHADOW
280
     0
  9
$SHADOWPLANELOCATION
 40
0.0
  0
ENDSEC
  0
SECTION
  2
CLASSES
  0
CLASS
  1
ACDBDICTIONARYWDFLT
  2
AcDbDictionaryWithDefault
  3
ObjectDBX Classes
 90
        0
 91
        4
280
     0
281
     0
  0
CLASS
  1
VISUALSTYLE
  2
AcDbVisualStyle
  3
ObjectDBX Classes
 90
     4095
 91
        4
280
     0
281
     0
  0
CLASS
  1
MATERIAL
  2
AcDbMaterial
  3
ObjectDBX Classes
 90
     1153
 91
        4
280
     0
281
     0
  0
CLASS
  1
SUN
  2
AcDbSun
  3
SCENEOE
 90
     1024
 91
        4
280
     0
281
     0
  0
ENDSEC
  0
SECTION
  2
TABLES
  0
TABLE
  2
VPORT
  5
8
330
0
100
AcDbSymbolTable
 70
     1
  0
VPORT
  5
29
330
8
100
AcDbSymbolTableRecord
100
AcDbViewportTableRecord
  2
*Active
 70
     0
 10
0.0
 20
0.0
 11
1.0
 21
1.0
 12
0.0
 22
0.0
 13
0.0
 23
0.0
 14
0.5
 24
0.5
 15
0.5
 25
0.5
 16
0.0
 26
0.0
 36
1.0
 17
112.0657407127242
 27
-17.59479166226845
 37
0.0
 40
22.72476851283808
 41
2.20439844760664
 42
50.0
 43
0.0
 44
0.0
 50
0.0
 51
0.0
 71
     0
 72
   100
 73
     1
 74
     3
 75
     0
 76
     0
 77
     0
 78
     0
281
     0
 65
     1
110
0.0
120
0.0
130
0.0
111
1.0
121
0.0
131
0.0
112
0.0
122
1.0
132
0.0
 79
     0
146
0.0
 60
     3
 61
     5
292
     1
282
     1
141
0.0
142
0.0
 63
   250
361
3F
  0
ENDTAB
  0
TABLE
  2
LTYPE
  5
5
330
0
100
AcDbSymbolTable
 70
     1
  0
LTYPE
  5
14
330
5
100
AcDbSymbolTableRecord
100
AcDbLinetypeTableRecord
  2
ByBlock
 70
     0
  3

 72
    65
 73
     0
 40
0.0
  0
LTYPE
  5
15
330
5
100
AcDbSymbolTableRecord
100
AcDbLinetypeTableRecord
  2
ByLayer
 70
     0
  3

 72
    65
 73
     0
 40
0.0
  0
LTYPE
  5
16
330
5
100
AcDbSymbolTableRecord
100
AcDbLinetypeTableRecord
  2
Continuous
 70
     0
  3
Solid line
 72
    65
 73
     0
 40
0.0
  0
ENDTAB
  0
TABLE
  2
LAYER
  5
2
330
0
100
AcDbSymbolTable
 70
     2
  0
LAYER
  5
10
330
2
100
AcDbSymbolTableRecord
100
AcDbLayerTableRecord
  2
0
 70
     0
 62
     7
  6
Continuous
370
    -3
390
F
347
3E
  0
LAYER
  5
40
330
2
100
AcDbSymbolTableRecord
100
AcDbLayerTableRecord
  2
Lager 1
 70
     0
 62
     7
  6
Continuous
370
    -3
390
F
347
3E
  0
ENDTAB
  0
TABLE
  2
STYLE
  5
3
330
0
100
AcDbSymbolTable
 70
     1
  0
STYLE
  5
11
330
3
100
AcDbSymbolTableRecord
100
AcDbTextStyleTableRecord
  2
Standard
 70
     0
 40
0.0
 41
1.0
 50
0.0
 71
     0
 42
0.2
  3
txt
  4

  0
ENDTAB
  0
TABLE
  2
VIEW
  5
6
330
0
100
AcDbSymbolTable
 70
     0
  0
ENDTAB
  0
TABLE
  2
UCS
  5
7
330
0
100
AcDbSymbolTable
 70
     0
  0
ENDTAB
  0
TABLE
  2
APPID
  5
9
330
0
100
AcDbSymbolTable
 70
     1
  0
APPID
  5
12
330
9
100
AcDbSymbolTableRecord
100
AcDbRegAppTableRecord
  2
ACAD
 70
     0
  0
ENDTAB
  0
TABLE
  2
DIMSTYLE
  5
A
330
0
100
AcDbSymbolTable
 70
     1
100
AcDbDimStyleTable
  0
DIMSTYLE
105
27
330
A
100
AcDbSymbolTableRecord
100
AcDbDimStyleTableRecord
  2
Standard
 70
     0
178
     0
340
11
  0
ENDTAB
  0
TABLE
  2
BLOCK_RECORD
  5
1
330
0
100
AcDbSymbolTable
 70
     3
  0
BLOCK_RECORD
  5
1F
330
1
100
AcDbSymbolTableRecord
100
AcDbBlockTableRecord
  2
*Model_Space
340
22
 70
     0
280
     1
281
     0
  0
BLOCK_RECORD
  5
1B
330
1
100
AcDbSymbolTableRecord
100
AcDbBlockTableRecord
  2
*Paper_Space
340
1E
 70
     0
280
     1
281
     0
  0
BLOCK_RECORD
  5
23
330
1
100
AcDbSymbolTableRecord
100
AcDbBlockTableRecord
  2
*Paper_Space0
340
26
 70
     0
280
     1
281
     0
  0
BLOCK_RECORD
  5
41
330
1
100
AcDbSymbolTableRecord
100
AcDbBlockTableRecord
  2
block 2
340
0
102
{BLKREFS
331
42
102
}
 70
     0
280
     1
281
     0
  0
BLOCK_RECORD
  5
93
330
1
100
AcDbSymbolTableRecord
100
AcDbBlockTableRecord
  2
block 3
340
0
102
{BLKREFS
331
94
102
}
 70
     0
280
     1
281
     0
  0
ENDTAB
  0
ENDSEC
  0
SECTION
  2
BLOCKS
  0
BLOCK
  5
20
330
1F
100
AcDbEntity
  8
0
100
AcDbBlockBegin
  2
*Model_Space
 70
     0
 10
0.0
 20
0.0
 30
0.0
  3
*Model_Space
  1

  0
ENDBLK
  5
21
330
1F
100
AcDbEntity
  8
0
100
AcDbBlockEnd
  0
BLOCK
  5
1C
330
1B
100
AcDbEntity
 67
     1
  8
0
100
AcDbBlockBegin
  2
*Paper_Space
 70
     0
 10
0.0
 20
0.0
 30
0.0
  3
*Paper_Space
  1

  0
ENDBLK
  5
1D
330
1B
100
AcDbEntity
 67
     1
  8
0
100
AcDbBlockEnd
  0
BLOCK
  5
24
330
23
100
AcDbEntity
  8
0
100
AcDbBlockBegin
  2
*Paper_Space0
 70
     0
 10
0.0
 20
0.0
 30
0.0
  3
*Paper_Space0
  1

  0
ENDBLK
  5
25
330
23
100
AcDbEntity
  8
0
100
AcDbBlockEnd
  0
BLOCK
  5
43
330
41
100
AcDbEntity
  8
0
100
AcDbBlockBegin
  2
block 2
 70
     0
 10
0.0
 20
0.0
 30
0.0
  3
block 2
  1

  0
SPLINE
  5
45
330
41
100
AcDbEntity
  8
Lager 1
 62
   250
420
  1842203
370
    35
100
AcDbSpline
210
0.0
220
0.0
230
1.0
 70
    11
 71
     3
 72
    95
 73
    91
 74
     0
 42
0.0000000001
 43
0.0000000001
 12
1.0
 22
0.0
 32
0.0
 13
1.0
 23
0.0
 33
0.0
 40
0.0
 40
0.0
 40
0.0
 40
0.0
 40
1.0
 40
1.0
 40
1.0
 40
2.0
 40
2.0
 40
2.0
 40
3.0
 40
3.0
 40
3.0
 40
4.0
 40
4.0
 40
4.0
 40
5.0
 40
5.0
 40
5.0
 40
6.0
 40
6.0
 40
6.0
 40
7.0
 40
7.0
 40
7.0
 40
8.0
 40
8.0
 40
8.0
 40
9.0
 40
9.0
 40
9.0
 40
10.0
 40
10.0
 40
10.0
 40
11.0
 40
11.0
 40
11.0
 40
12.0
 40
12.0
 40
12.0
 40
13.0
 40
13.0
 40
13.0
 40
14.0
 40
14.0
 40
14.0
 40
15.0
 40
15.0
 40
15.0
 40
16.0
 40
16.0
 40
16.0
 40
17.0
 40
17.0
 40
17.0
 40
18.0
 40
18.0
 40
18.0
 40
19.0
 40
19.0
 40
19.0
 40
20.0
 40
20.0
 40
20.0
 40
21.0
 40
21.0
 40
21.0
 40
22.0
 40
22.0
 40
22.0
 40
23.0
 40
23.0
 40
23.0
 40
24.0
 40
24.0
 40
24.0
 40
25.0
 40
25.0
 40
25.0
 40
26.0
 40
26.0
 40
26.0
 40
27.0
 40
27.0
 40
27.0
 40
28.0
 40
28.0
 40
28.0
 40
29.0
 40
29.0
 40
29.0
 40
30.0
 40
30.0
 40
30.0
 40
30.0
 10
105.2428465235296
 20
-16.69417498496675
 30
0.0
 10
105.2411384388299
 20
-16.69449863107761
 30
0.0
 10
105.2400077905048
 20
-16.69607394885956
 30
0.0
 10
105.2400686543561
 20
-16.69783182526836
 30
0.0
 10
105.2740660839911
 20
-17.29748060539407
 30
0.0
 10
105.1773755097223
 20
-17.89017876198012
 30
0.0
 10
104.9526184478914
 20
-18.4592326766474
 30
0.0
 10
104.7278862819183
 20
-19.02841798244386
 30
0.0
 10
104.3688258799478
 20
-19.59011743674637
 30
0.0
 10
103.8853392225062
 20
-20.12870787708567
 30
0.0
 10
103.5724714128764
 20
-20.47123126492323
 30
0.0
 10
103.2443468021199
 20
-20.7741796836903
 30
0.0
 10
102.9101004968255
 20
-21.02901680433073
 30
0.0
 10
102.6403898409243
 20
-20.68595145527206
 30
0.0
 10
102.2746732657125
 20
-20.39973198537012
 30
0.0
 10
101.8230617136786
 20
-20.17810627813446
 30
0.0
 10
101.3897709696638
 20
-19.96158399065754
 30
0.0
 10
100.9251244433351
 20
-19.82273207589774
 30
0.0
 10
100.4420019543631
 20
-19.76523495573793
 30
0.0
 10
99.95846039614577
 20
-19.70768113201254
 30
0.0
 10
99.44171874807428
 20
-19.72991654730542
 30
0.0
 10
98.90616849924832
 20
-19.83139205118024
 30
0.0
 10
98.90616849924832
 20
-19.83139205118024
 30
0.0
 10
98.77168967695272
 20
-19.85687295849531
 30
0.0
 10
98.77168967695272
 20
-19.85687295849531
 30
0.0
 10
98.2361394281287
 20
-19.95834846236949
 30
0.0
 10
97.74708197051422
 20
-20.12669081502678
 30
0.0
 10
97.31811212586398
 20
-20.35714634984485
 30
0.0
 10
96.88944586318341
 20
-20.58740825389516
 30
0.0
 10
96.50780211652244
 20
-20.88661436896515
 30
0.0
 10
96.18382007861862
 20
-21.24662391517288
 30
0.0
 10
95.84452271926735
 20
-21.61811021994842
 30
0.0
 10
95.60886208916027
 20
-22.01827801694342
 30
0.0
 10
95.48334822384469
 20
-22.43623009702869
 30
0.0
 10
95.07897928778323
 20
-22.32134502374577
 30
0.0
 10
94.66277314299501
 20
-22.15943162201678
 30
0.0
 10
94.24642017711234
 20
-21.95508022792604
 30
0.0
 10
93.59941754581101
 20
-21.6306937216767
 30
0.0
 10
93.05976261363723
 20
-21.23928191371902
 30
0.0
 10
92.64232062820766
 20
-20.79177509790673
 30
0.0
 10
92.22503492976115
 20
-20.34437477737517
 30
0.0
 10
91.91822334157794
 20
-19.82813179066063
 30
0.0
 10
91.73043259342963
 20
-19.2576236084966
 30
0.0
 10
91.72984616505914
 20
-19.25596531550657
 30
0.0
 10
91.72821759963892
 20
-19.25491281067304
 30
0.0
 10
91.72650951494047
 20
-19.25523645678647
 30
0.0
 10
91.72650951494047
 20
-19.25523645678647
 30
0.0
 10
91.69293908103984
 20
-19.26159734766826
 30
0.0
 10
91.69293908103984
 20
-19.26159734766826
 30
0.0
 10
91.6910996052103
 20
-19.26194588963559
 30
0.0
 10
91.68988735746578
 20
-19.26380888553168
 30
0.0
 10
91.69023589943117
 20
-19.26564836136252
 30
0.0
 10
91.69023589943117
 20
-19.26564836136252
 30
0.0
 10
92.35024990414908
 20
-22.74895862795658
 30
0.0
 10
92.35024990414908
 20
-22.74895862795658
 30
0.0
 10
92.48336803938514
 20
-23.4515070039313
 30
0.0
 10
92.7747382734694
 20
-24.08092358316262
 30
0.0
 10
93.216276497166
 20
-24.61968496226568
 30
0.0
 10
93.65671171996806
 20
-25.15729425311451
 30
0.0
 10
94.25951987824237
 20
-25.62017428515623
 30
0.0
 10
95.00781989741016
 20
-25.9957350957607
 30
0.0
 10
95.75438760745841
 20
-26.36754089134935
 30
0.0
 10
96.55717764798986
 20
-26.60578787891609
 30
0.0
 10
97.3940139082047
 20
-26.70406151188378
 30
0.0
 10
98.2302340124754
 20
-26.80231578506866
 30
0.0
 10
99.12285830150164
 20
-26.76330186664756
 30
0.0
 10
100.047129210571
 20
-26.58817197655518
 30
0.0
 10
100.047129210571
 20
-26.58817197655518
 30
0.0
 10
100.1816080328653
 20
-26.56269106924076
 30
0.0
 10
100.1816080328653
 20
-26.56269106924076
 30
0.0
 10
101.1058789419353
 20
-26.38756117915095
 30
0.0
 10
101.9509680522856
 20
-26.09731497085617
 30
0.0
 10
102.6932152969535
 20
-25.69997434688504
 30
0.0
 10
103.4360946014217
 20
-25.30237785251014
 30
0.0
 10
104.0960820192265
 20
-24.78696531424824
 30
0.0
 10
104.65488519291
 20
-24.16781920192673
 30
0.0
 10
105.213926924432
 20
-23.54454463676949
 30
0.0
 10
105.6056182345991
 20
-22.89322788028738
 30
0.0
 10
105.8188538871477
 20
-22.23176171215767
 30
0.0
 10
106.0326946234951
 20
-21.568819809668
 30
0.0
 10
106.0736125590048
 20
-20.8764416138286
 30
0.0
 10
105.9404944237687
 20
-20.1738932378526
 30
0.0
 10
105.9404944237687
 20
-20.1738932378526
 30
0.0
 10
105.2804804190514
 20
-16.69058297126078
 30
0.0
 10
105.2804804190514
 20
-16.69058297126078
 30
0.0
 10
105.2801318770854
 20
-16.68874349542931
 30
0.0
 10
105.2783221288244
 20
-16.68745310419069
 30
0.0
 10
105.2764826529968
 20
-16.68780164615545
 30
0.0
 10
105.2764826529968
 20
-16.68780164615545
 30
0.0
 10
105.2428465235296
 20
-16.69417498496675
 30
0.0
 10
105.2428465235296
 20
-16.69417498496675
 30
0.0
  0
SPLINE
  5
46
330
41
100
AcDbEntity
  8
Lager 1
 62
   250
420
  1842203
370
    35
100
AcDbSpline
210
0.0
220
0.0
230
1.0
 70
    11
 71
     3
 72
    59
 73
    55
 74
     0
 42
0.0000000001
 43
0.0000000001
 12
1.0
 22
0.0
 32
0.0
 13
1.0
 23
0.0
 33
0.0
 40
0.0
 40
0.0
 40
0.0
 40
0.0
 40
1.0
 40
1.0
 40
1.0
 40
2.0
 40
2.0
 40
2.0
 40
3.0
 40
3.0
 40
3.0
 40
4.0
 40
4.0
 40
4.0
 40
5.0
 40
5.0
 40
5.0
 40
6.0
 40
6.0
 40
6.0
 40
7.0
 40
7.0
 40
7.0
 40
8.0
 40
8.0
 40
8.0
 40
9.0
 40
9.0
 40
9.0
 40
10.0
 40
10.0
 40
10.0
 40
11.0
 40
11.0
 40
11.0
 40
12.0
 40
12.0
 40
12.0
 40
13.0
 40
13.0
 40
13.0
 40
14.0
 40
14.0
 40
14.0
 40
15.0
 40
15.0
 40
15.0
 40
16.0
 40
16.0
 40
16.0
 40
17.0
 40
17.0
 40
17.0
 40
18.0
 40
18.0
 40
18.0
 40
18.0
 10
105.5950410345955
 20
-13.47832522540338
 30
0.0
 10
105.5950410345955
 20
-13.47832522540338
 30
0.0
 10
104.349550915029
 20
-13.71431939725065
 30
0.0
 10
104.349550915029
 20
-13.71431939725065
 30
0.0
 10
104.349550915029
 20
-13.71431939725065
 30
0.0
 10
104.2001094337279
 20
-12.92562242665753
 30
0.0
 10
104.2001094337279
 20
-12.92562242665753
 30
0.0
 10
104.0719107128568
 20
-12.24903690364673
 30
0.0
 10
103.7889643417078
 20
-11.64354469690358
 30
0.0
 10
103.3590986809248
 20
-11.12588781296387
 30
0.0
 10
102.9306895936913
 20
-10.60995041156106
 30
0.0
 10
102.3430050028206
 20
-10.16543213334598
 30
0.0
 10
101.6125565357543
 20
-9.804702542652734
 30
0.0
 10
100.8841188916727
 20
-9.447915467221865
 30
0.0
 10
100.1003493391802
 20
-9.220010663527866
 30
0.0
 10
99.28311530715365
 20
-9.127221171276643
 30
0.0
 10
98.46643145832476
 20
-9.034526978143127
 30
0.0
 10
97.59430216826097
 20
-9.07432841945736
 30
0.0
 10
96.69092533204183
 20
-9.245499322365838
 30
0.0
 10
96.69092533204183
 20
-9.245499322365838
 30
0.0
 10
96.55948653868384
 20
-9.27040420816149
 30
0.0
 10
96.55948653868384
 20
-9.27040420816149
 30
0.0
 10
95.65610970246406
 20
-9.44157511107061
 30
0.0
 10
94.82987256150741
 20
-9.723578373852023
 30
0.0
 10
94.10370769182649
 20
-10.10860993673944
 30
0.0
 10
93.37700142767399
 20
-10.49394362974924
 30
0.0
 10
92.73099686600821
 20
-10.99276054482773
 30
0.0
 10
92.18357284716376
 20
-11.59129656053548
 30
0.0
 10
91.63571965416547
 20
-12.19423741962938
 30
0.0
 10
91.25138643661141
 20
-12.82293262074074
 30
0.0
 10
91.04141521922287
 20
-13.45982965799135
 30
0.0
 10
90.83071742005043
 20
-14.09885983977603
 30
0.0
 10
90.78888732965059
 20
-14.76589035250284
 30
0.0
 10
90.91708605052108
 20
-15.44247587551427
 30
0.0
 10
90.91708605052108
 20
-15.44247587551427
 30
0.0
 10
91.0665275318228
 20
-16.23117284610804
 30
0.0
 10
91.0665275318228
 20
-16.23117284610804
 30
0.0
 10
91.0665275318228
 20
-16.23117284610804
 30
0.0
 10
89.82097320180566
 20
-16.46717918448568
 30
0.0
 10
89.82097320180566
 20
-16.46717918448568
 30
0.0
 10
89.38536950169183
 20
-16.54971692031057
 30
0.0
 10
89.09917997668455
 20
-16.9697139362683
 30
0.0
 10
89.18171771251072
 20
-17.40531763638245
 30
0.0
 10
89.26425544833624
 20
-17.84092133649981
 30
0.0
 10
89.68425246429527
 20
-18.12711086150195
 30
0.0
 10
90.11985616440813
 20
-18.04457312567643
 30
0.0
 10
90.11985616440813
 20
-18.04457312567643
 30
0.0
 10
105.8939239971989
 20
-15.05571916659477
 30
0.0
 10
105.8939239971989
 20
-15.05571916659477
 30
0.0
 10
106.3295276973137
 20
-14.9731814307686
 30
0.0
 10
106.6157172223178
 20
-14.55318441481344
 30
0.0
 10
106.5331794864923
 20
-14.11758071469928
 30
0.0
 10
106.4506417506655
 20
-13.68197701458385
 30
0.0
 10
106.0306447347109
 20
-13.39578748957721
 30
0.0
 10
105.5950410345955
 20
-13.47832522540338
 30
0.0
  0
ENDBLK
  5
44
330
41
100
AcDbEntity
  8
0
100
AcDbBlockEnd
  0
BLOCK
  5
95
330
93
100
AcDbEntity
  8
0
100
AcDbBlockBegin
  2
block 3
 70
     0
 10
0.0
 20
0.0
 30
0.0
  3
block 3
  1

  0
SPLINE
  5
97
330
93
100
AcDbEntity
  8
Lager 1
 62
   250
420
  1842203
370
    35
100
AcDbSpline
210
0.0
220
0.0
230
1.0
 70
    11
 71
     3
 72
   113
 73
   109
 74
     0
 42
0.0000000001
 43
0.0000000001
 12
1.0
 22
0.0
 32
0.0
 13
1.0
 23
0.0
 33
0.0
 40
0.0
 40
0.0
 40
0.0
 40
0.0
 40
1.0
 40
1.0
 40
1.0
 40
2.0
 40
2.0
 40
2.0
 40
3.0
 40
3.0
 40
3.0
 40
4.0
 40
4.0
 40
4.0
 40
5.0
 40
5.0
 40
5.0
 40
6.0
 40
6.0
 40
6.0
 40
7.0
 40
7.0
 40
7.0
 40
8.0
 40
8.0
 40
8.0
 40
9.0
 40
9.0
 40
9.0
 40
10.0
 40
10.0
 40
10.0
 40
11.0
 40
11.0
 40
11.0
 40
12.0
 40
12.0
 40
12.0
 40
13.0
 40
13.0
 40
13.0
 40
14.0
 40
14.0
 40
14.0
 40
15.0
 40
15.0
 40
15.0
 40
16.0
 40
16.0
 40
16.0
 40
17.0
 40
17.0
 40
17.0
 40
18.0
 40
18.0
 40
18.0
 40
19.0
 40
19.0
 40
19.0
 40
20.0
 40
20.0
 40
20.0
 40
21.0
 40
21.0
 40
21.0
 40
22.0
 40
22.0
 40
22.0
 40
23.0
 40
23.0
 40
23.0
 40
24.0
 40
24.0
 40
24.0
 40
25.0
 40
25.0
 40
25.0
 40
26.0
 40
26.0
 40
26.0
 40
27.0
 40
27.0
 40
27.0
 40
28.0
 40
28.0
 40
28.0
 40
29.0
 40
29.0
 40
29.0
 40
30.0
 40
30.0
 40
30.0
 40
31.0
 40
31.0
 40
31.0
 40
32.0
 40
32.0
 40
32.0
 40
33.0
 40
33.0
 40
33.0
 40
34.0
 40
34.0
 40
34.0
 40
35.0
 40
35.0
 40
35.0
 40
36.0
 40
36.0
 40
36.0
 40
36.0
 10
119.6084124515875
 20
-26.72170863726009
 30
0.0
 10
119.4858908280739
 20
-26.66579272854394
 30
0.0
 10
119.3905048661442
 20
-26.58459131698603
 30
0.0
 10
119.3226657121852
 20
-26.47851554897763
 30
0.0
 10
119.2544154118387
 20
-26.37264535416293
 30
0.0
 10
119.2202902616655
 20
-26.24806799871034
 30
0.0
 10
119.2202902616655
 20
-26.1049890558174
 30
0.0
 10
119.2202902616655
 20
-25.950192440874
 30
0.0
 10
119.2572934365526
 20
-25.8215036215472
 30
0.0
 10
119.3312997863255
 20
-25.71892259783187
 30
0.0
 10
119.404894989711
 20
-25.61654714731282
 30
0.0
 10
119.5031589763546
 20
-25.54500767586571
 30
0.0
 10
119.6256805998681
 20
-25.50450975668425
 30
0.0
 10
119.6256805998681
 20
-25.50450975668425
 30
0.0
 10
119.6256805998681
 20
-25.49011963311683
 30
0.0
 10
119.6256805998681
 20
-25.49011963311683
 30
0.0
 10
119.5126153432697
 20
-25.43297028523586
 30
0.0
 10
119.4246300163175
 20
-25.3608140942089
 30
0.0
 10
119.3625469117855
 20
-25.27385663322453
 30
0.0
 10
119.3000526608655
 20
-25.18689917224145
 30
0.0
 10
119.2688055354055
 20
-25.07547850119402
 30
0.0
 10
119.2688055354055
 20
-24.93959462008351
 30
0.0
 10
119.2688055354055
 20
-24.72518177893332
 30
0.0
 10
119.3403450068533
 20
-24.55948978471942
 30
0.0
 10
119.4834239497481
 20
-24.44272421063295
 30
0.0
 10
119.626914039031
 20
-24.3259586365452
 30
0.0
 10
119.8197416948288
 20
-24.26757584950196
 30
0.0
 10
120.0619069171427
 20
-24.26757584950196
 30
0.0
 10
120.2099196166886
 20
-24.26757584950196
 30
0.0
 10
120.3414864607299
 20
-24.29553380386196
 30
0.0
 10
120.456607449266
 20
-24.35144971257938
 30
0.0
 10
120.5721395841902
 20
-24.40757119448924
 30
0.0
 10
120.6617694966922
 20
-24.48610015452763
 30
0.0
 10
120.7250860403877
 20
-24.58744773907813
 30
0.0
 10
120.7888137304706
 20
-24.68879532362864
 30
0.0
 10
120.8204720023174
 20
-24.80617761729752
 30
0.0
 10
120.8204720023174
 20
-24.93959462008351
 30
0.0
 10
120.8204720023174
 20
-24.93959462008351
 30
0.0
 10
120.8204720023174
 20
-25.03970876547046
 30
0.0
 10
120.8204720023174
 20
-25.03970876547046
 30
0.0
 10
120.8204720023174
 20
-25.03970876547046
 30
0.0
 10
120.4048030044254
 20
-25.03970876547046
 30
0.0
 10
120.4048030044254
 20
-25.03970876547046
 30
0.0
 10
120.4048030044254
 20
-25.03970876547046
 30
0.0
 10
120.4048030044254
 20
-24.97186961151142
 30
0.0
 10
120.4048030044254
 20
-24.97186961151142
 30
0.0
 10
120.4048030044254
 20
-24.74306664679638
 30
0.0
 10
120.2884485767263
 20
-24.62856237784072
 30
0.0
 10
120.0549174285527
 20
-24.62856237784072
 30
0.0
 10
119.9443190502808
 20
-24.62856237784072
 30
0.0
 10
119.8575671624908
 20
-24.65775377136298
 30
0.0
 10
119.7954840579588
 20
-24.71613655840493
 30
0.0
 10
119.7329898070388
 20
-24.77451934544945
 30
0.0
 10
119.7017426815788
 20
-24.85510403742495
 30
0.0
 10
119.7017426815788
 20
-24.95747948794529
 30
0.0
 10
119.7017426815788
 20
-25.07424506203047
 30
0.0
 10
119.7334009534269
 20
-25.16654742605387
 30
0.0
 10
119.7971286435091
 20
-25.23459215320534
 30
0.0
 10
119.860445187204
 20
-25.3024313071631
 30
0.0
 10
119.9418521719543
 20
-25.33635088414326
 30
0.0
 10
120.0413495977608
 20
-25.33635088414326
 30
0.0
 10
120.0413495977608
 20
-25.33635088414326
 30
0.0
 10
120.1831951014927
 20
-25.33635088414326
 30
0.0
 10
120.1831951014927
 20
-25.33635088414326
 30
0.0
 10
120.1831951014927
 20
-25.33635088414326
 30
0.0
 10
120.1831951014927
 20
-25.69754298567702
 30
0.0
 10
120.1831951014927
 20
-25.69754298567702
 30
0.0
 10
120.1831951014927
 20
-25.69754298567702
 30
0.0
 10
120.0516282574521
 20
-25.69754298567702
 30
0.0
 10
120.0516282574521
 20
-25.69754298567702
 30
0.0
 10
119.7860276910436
 20
-25.69754298567702
 30
0.0
 10
119.6532274078394
 20
-25.82623180500382
 30
0.0
 10
119.6532274078394
 20
-26.08360944365998
 30
0.0
 10
119.6532274078394
 20
-26.20284189607098
 30
0.0
 10
119.6869414116246
 20
-26.29267738176985
 30
0.0
 10
119.7535471264207
 20
-26.35352704713761
 30
0.0
 10
119.8205639876037
 20
-26.41417113931294
 30
0.0
 10
119.9143053639837
 20
-26.44459597199747
 30
0.0
 10
120.0343601091708
 20
-26.44459597199747
 30
0.0
 10
120.1564705862969
 20
-26.44459597199747
 30
0.0
 10
120.2489785235134
 20
-26.41314327334439
 30
0.0
 10
120.3114727744334
 20
-26.34982672964954
 30
0.0
 10
120.3735558789653
 20
-26.2867157591484
 30
0.0
 10
120.4048030044254
 20
-26.1968802734521
 30
0.0
 10
120.4048030044254
 20
-26.07990912617192
 30
0.0
 10
120.4048030044254
 20
-26.07990912617192
 30
0.0
 10
120.4048030044254
 20
-25.33635088414326
 30
0.0
 10
120.4048030044254
 20
-25.33635088414326
 30
0.0
 10
120.4048030044254
 20
-25.33635088414326
 30
0.0
 10
121.0938843500906
 20
-25.33635088414326
 30
0.0
 10
121.0938843500906
 20
-25.33635088414326
 30
0.0
 10
121.0938843500906
 20
-25.33635088414326
 30
0.0
 10
121.0938843500906
 20
-25.69754298567702
 30
0.0
 10
121.0938843500906
 20
-25.69754298567702
 30
0.0
 10
121.0938843500906
 20
-25.69754298567702
 30
0.0
 10
120.8204720023174
 20
-25.69754298567702
 30
0.0
 10
120.8204720023174
 20
-25.69754298567702
 30
0.0
 10
120.8204720023174
 20
-25.69754298567702
 30
0.0
 10
120.8204720023174
 20
-26.06921932009256
 30
0.0
 10
120.8204720023174
 20
-26.06921932009256
 30
0.0
 10
120.8204720023174
 20
-26.29576097967679
 30
0.0
 10
120.7518105555841
 20
-26.47502080468327
 30
0.0
 10
120.6144876621151
 20
-26.60740994149942
 30
0.0
 10
120.4771647686473
 20
-26.73959350512186
 30
0.0
 10
120.2814590881357
 20
-26.80578807353122
 30
0.0
 10
120.0273706205814
 20
-26.80578807353122
 30
0.0
 10
119.8703127005072
 20
-26.80578807353122
 30
0.0
 10
119.730522928713
 20
-26.7776245459788
 30
0.0
 10
119.6084124515875
 20
-26.72170863726009
 30
0.0
  0
ENDBLK
  5
96
330
93
100
AcDbEntity
  8
0
100
AcDbBlockEnd
  0
ENDSEC
  0
SECTION
  2
ENTITIES
  0
INSERT
  5
42
330
1F
100
AcDbEntity
  8
Lager 1
100
AcDbBlockReference
  2
block 2
 10
0.0
 20
0.0
 30
0.0
  0
SPLINE
  5
47
330
1F
100
AcDbEntity
  8
Lager 1
 62
   250
420
  1842203
370
    35
100
AcDbSpline
210
0.0
220
0.0
230
1.0
 70
    11
 71
     3
 72
    41
 73
    37
 74
     0
 42
0.0000000001
 43
0.0000000001
 12
1.0
 22
0.0
 32
0.0
 13
1.0
 23
0.0
 33
0.0
 40
0.0
 40
0.0
 40
0.0
 40
0.0
 40
1.0
 40
1.0
 40
1.0
 40
2.0
 40
2.0
 40
2.0
 40
3.0
 40
3.0
 40
3.0
 40
4.0
 40
4.0
 40
4.0
 40
5.0
 40
5.0
 40
5.0
 40
6.0
 40
6.0
 40
6.0
 40
7.0
 40
7.0
 40
7.0
 40
8.0
 40
8.0
 40
8.0
 40
9.0
 40
9.0
 40
9.0
 40
10.0
 40
10.0
 40
10.0
 40
11.0
 40
11.0
 40
11.0
 40
12.0
 40
12.0
 40
12.0
 40
12.0
 10
107.6947765849102
 20
-14.53970130899399
 30
0.0
 10
107.6947765849102
 20
-14.53970130899399
 30
0.0
 10
108.0748152198337
 20
-13.67374817311227
 30
0.0
 10
108.0748152198337
 20
-13.67374817311227
 30
0.0
 10
108.5479131685885
 20
-14.05935922203874
 30
0.0
 10
109.2996318174311
 20
-14.33407923232894
 30
0.0
 10
110.0257173618676
 20
-14.33407923232894
 30
0.0
 10
110.9462801549677
 20
-14.33407923232894
 30
0.0
 10
111.3352346522931
 20
-13.99917715081997
 30
0.0
 10
111.3352346522931
 20
-13.55338403067408
 30
0.0
 10
111.3352346522931
 20
-12.25835501665337
 30
0.0
 10
107.8218276241527
 20
-13.10759091052884
 30
0.0
 10
107.8218276241527
 20
-10.87778944770417
 30
0.0
 10
107.8218276241527
 20
-9.908468032089562
 30
0.0
 10
108.5819048939978
 20
-9.085143863321916
 30
0.0
 10
110.2034773685257
 20
-9.085143863321916
 30
0.0
 10
110.9128456709565
 20
-9.085143863321916
 30
0.0
 10
111.656205698798
 20
-9.273770077283588
 30
0.0
 10
112.1710967525664
 20
-9.617030779793758
 30
0.0
 10
112.1710967525664
 20
-9.617030779793758
 30
0.0
 10
111.8250498430522
 20
-10.4832625363771
 30
0.0
 10
111.8250498430522
 20
-10.4832625363771
 30
0.0
 10
111.2928843058801
 20
-10.16591355897411
 30
0.0
 10
110.710009801291
 20
-10.01155769112275
 30
0.0
 10
110.1945615061232
 20
-10.01155769112275
 30
0.0
 10
109.2829145754262
 20
-10.01155769112275
 30
0.0
 10
108.9112345615058
 20
-10.37153563564045
 30
0.0
 10
108.9112345615058
 20
-10.82624461818886
 30
0.0
 10
108.9112345615058
 20
-12.10399914880328
 30
0.0
 10
112.4162829686457
 20
-11.2723163590338
 30
0.0
 10
112.4162829686457
 20
-13.47648471744906
 30
0.0
 10
112.4162829686457
 20
-14.4366116499608
 30
0.0
 10
111.6472898363961
 20
-15.26021443942943
 30
0.0
 10
110.0257173618676
 20
-15.26021443942943
 30
0.0
 10
109.1051545687694
 20
-15.26021443942943
 30
0.0
 10
108.1845917756687
 20
-14.96877718713234
 30
0.0
 10
107.6947765849102
 20
-14.53970130899399
 30
0.0
  0
POLYLINE
  5
48
330
1F
100
AcDbEntity
  8
Lager 1
 62
   250
420
  1842203
370
    35
100
AcDb2dPolyline
 66
     1
 10
0.0
 20
0.0
 30
0.0
  0
VERTEX
  5
49
330
48
100
AcDbEntity
  8
Lager 1
 62
   250
420
  1842203
370
    35
100
AcDbVertex
100
AcDb2dVertex
 10
114.6602147911995
 20
-12.67402922707694
 30
0.0
  0
VERTEX
  5
4A
330
48
100
AcDbEntity
  8
Lager 1
 62
   250
420
  1842203
370
    35
100
AcDbVertex
100
AcDb2dVertex
 10
113.6954856878116
 20
-13.68005470112071
 30
0.0
  0
VERTEX
  5
4B
330
48
100
AcDbEntity
  8
Lager 1
 62
   250
420
  1842203
370
    35
100
AcDbVertex
100
AcDb2dVertex
 10
113.6954856878116
 20
-15.26021443942943
 30
0.0
  0
VERTEX
  5
4C
330
48
100
AcDbEntity
  8
Lager 1
 62
   250
420
  1842203
370
    35
100
AcDbVertex
100
AcDb2dVertex
 10
112.5649975410959
 20
-15.26021443942943
 30
0.0
  0
VERTEX
  5
4D
330
48
100
AcDbEntity
  8
Lager 1
 62
   250
420
  1842203
370
    35
100
AcDbVertex
100
AcDb2dVertex
 10
112.5649975410959
 20
-9.08095819962479
 30
0.0
  0
VERTEX
  5
4E
330
48
100
AcDbEntity
  8
Lager 1
 62
   250
420
  1842203
370
    35
100
AcDbVertex
100
AcDb2dVertex
 10
113.6954856878116
 20
-9.08095819962479
 30
0.0
  0
VERTEX
  5
4F
330
48
100
AcDbEntity
  8
Lager 1
 62
   250
420
  1842203
370
    35
100
AcDbVertex
100
AcDb2dVertex
 10
113.6954856878116
 20
-12.25016786714676
 30
0.0
  0
VERTEX
  5
50
330
48
100
AcDbEntity
  8
Lager 1
 62
   250
420
  1842203
370
    35
100
AcDbVertex
100
AcDb2dVertex
 10
116.7032380172794
 20
-9.08095819962479
 30
0.0
  0
VERTEX
  5
51
330
48
100
AcDbEntity
  8
Lager 1
 62
   250
420
  1842203
370
    35
100
AcDbVertex
100
AcDb2dVertex
 10
117.972527854259
 20
-9.08095819962479
 30
0.0
  0
VERTEX
  5
52
330
48
100
AcDbEntity
  8
Lager 1
 62
   250
420
  1842203
370
    35
100
AcDbVertex
100
AcDb2dVertex
 10
115.4167413591952
 20
-11.84408688902631
 30
0.0
  0
VERTEX
  5
53
330
48
100
AcDbEntity
  8
Lager 1
 62
   250
420
  1842203
370
    35
100
AcDbVertex
100
AcDb2dVertex
 10
118.128536365627
 20
-15.26021443942943
 30
0.0
  0
VERTEX
  5
54
330
48
100
AcDbEntity
  8
Lager 1
 62
   250
420
  1842203
370
    35
100
AcDbVertex
100
AcDb2dVertex
 10
116.8076260653294
 20
-15.26021443942943
 30
0.0
  0
VERTEX
  5
55
330
48
100
AcDbEntity
  8
Lager 1
 62
   250
420
  1842203
370
    35
100
AcDbVertex
100
AcDb2dVertex
 10
114.6602147911995
 20
-12.67402922707694
 30
0.0
  0
SEQEND
  5
56
330
48
100
AcDbEntity
  8
Lager 1
 62
   250
420
  1842203
370
    35
  0
SPLINE
  5
57
330
1F
100
AcDbEntity
  8
Lager 1
 62
   250
420
  1842203
370
    35
100
AcDbSpline
210
0.0
220
0.0
230
1.0
 70
    11
 71
     3
 72
    32
 73
    28
 74
     0
 42
0.0000000001
 43
0.0000000001
 12
1.0
 22
0.0
 32
0.0
 13
1.0
 23
0.0
 33
0.0
 40
0.0
 40
0.0
 40
0.0
 40
0.0
 40
1.0
 40
1.0
 40
1.0
 40
2.0
 40
2.0
 40
2.0
 40
3.0
 40
3.0
 40
3.0
 40
4.0
 40
4.0
 40
4.0
 40
5.0
 40
5.0
 40
5.0
 40
6.0
 40
6.0
 40
6.0
 40
7.0
 40
7.0
 40
7.0
 40
8.0
 40
8.0
 40
8.0
 40
9.0
 40
9.0
 40
9.0
 40
9.0
 10
123.5245837929278
 20
-11.87529446118232
 30
0.0
 10
123.5245837929278
 20
-11.87529446118232
 30
0.0
 10
123.5245837929278
 20
-15.25075980699019
 30
0.0
 10
123.5245837929278
 20
-15.25075980699019
 30
0.0
 10
123.5245837929278
 20
-15.25075980699019
 30
0.0
 10
122.4105445771568
 20
-15.25075980699019
 30
0.0
 10
122.4105445771568
 20
-15.25075980699019
 30
0.0
 10
122.4105445771568
 20
-15.25075980699019
 30
0.0
 10
122.4105445771568
 20
-13.68511362348586
 30
0.0
 10
122.4105445771568
 20
-13.68511362348586
 30
0.0
 10
122.4105445771568
 20
-13.68511362348586
 30
0.0
 10
119.2928173756367
 20
-13.68511362348586
 30
0.0
 10
119.2928173756367
 20
-13.68511362348586
 30
0.0
 10
119.2928173756367
 20
-13.68511362348586
 30
0.0
 10
119.2928173756367
 20
-15.25075980699019
 30
0.0
 10
119.2928173756367
 20
-15.25075980699019
 30
0.0
 10
119.2928173756367
 20
-15.25075980699019
 30
0.0
 10
118.1962998319556
 20
-15.25075980699019
 30
0.0
 10
118.1962998319556
 20
-15.25075980699019
 30
0.0
 10
118.1962998319556
 20
-15.25075980699019
 30
0.0
 10
118.1962998319556
 20
-11.87529446118232
 30
0.0
 10
118.1962998319556
 20
-11.87529446118232
 30
0.0
 10
118.1962998319556
 20
-10.04880144963257
 30
0.0
 10
119.266817475117
 20
-9.074370395349773
 30
0.0
 10
120.8601592048264
 20
-9.074370395349773
 30
0.0
 10
122.4535009345391
 20
-9.074370395349773
 30
0.0
 10
123.5245837929278
 20
-10.04880144963257
 30
0.0
 10
123.5245837929278
 20
-11.87529446118232
 30
0.0
  0
SPLINE
  5
58
330
1F
100
AcDbEntity
  8
Lager 1
 62
   250
420
  1842203
370
    35
100
AcDbSpline
210
0.0
220
0.0
230
1.0
 70
    11
 71
     3
 72
    20
 73
    16
 74
     0
 42
0.0000000001
 43
0.0000000001
 12
1.0
 22
0.0
 32
0.0
 13
1.0
 23
0.0
 33
0.0
 40
0.0
 40
0.0
 40
0.0
 40
0.0
 40
1.0
 40
1.0
 40
1.0
 40
2.0
 40
2.0
 40
2.0
 40
3.0
 40
3.0
 40
3.0
 40
4.0
 40
4.0
 40
4.0
 40
5.0
 40
5.0
 40
5.0
 40
5.0
 10
122.4105445771568
 20
-12.73668246972413
 30
0.0
 10
122.4105445771568
 20
-12.73668246972413
 30
0.0
 10
122.4105445771568
 20
-11.77129485910187
 30
0.0
 10
122.4105445771568
 20
-11.77129485910187
 30
0.0
 10
122.4105445771568
 20
-10.61429928594865
 30
0.0
 10
121.8023729910729
 20
-10.0660405141068
 30
0.0
 10
120.8516809763971
 20
-10.0660405141068
 30
0.0
 10
119.9009889617201
 20
-10.0660405141068
 30
0.0
 10
119.2928173756367
 20
-10.61429928594865
 30
0.0
 10
119.2928173756367
 20
-11.77129485910187
 30
0.0
 10
119.2928173756367
 20
-11.77129485910187
 30
0.0
 10
119.2928173756367
 20
-12.73668246972413
 30
0.0
 10
119.2928173756367
 20
-12.73668246972413
 30
0.0
 10
119.2928173756367
 20
-12.73668246972413
 30
0.0
 10
122.4105445771568
 20
-12.73668246972413
 30
0.0
 10
122.4105445771568
 20
-12.73668246972413
 30
0.0
  0
SPLINE
  5
59
330
1F
100
AcDbEntity
  8
Lager 1
 62
   250
420
  1842203
370
    35
100
AcDbSpline
210
0.0
220
0.0
230
1.0
 70
    11
 71
     3
 72
    17
 73
    13
 74
     0
 42
0.0000000001
 43
0.0000000001
 12
1.0
 22
0.0
 32
0.0
 13
1.0
 23
0.0
 33
0.0
 40
0.0
 40
0.0
 40
0.0
 40
0.0
 40
1.0
 40
1.0
 40
1.0
 40
2.0
 40
2.0
 40
2.0
 40
3.0
 40
3.0
 40
3.0
 40
4.0
 40
4.0
 40
4.0
 40
4.0
 10
121.7037048174746
 20
-9.072030074272773
 30
0.0
 10
121.7037048174746
 20
-8.655928100561201
 30
0.0
 10
121.9996329359634
 20
-8.366759761429433
 30
0.0
 10
122.3864425324658
 20
-8.366759761429433
 30
0.0
 10
122.7740032155622
 20
-8.366759761429433
 30
0.0
 10
123.0699313340511
 20
-8.655928100561201
 30
0.0
 10
123.0699313340511
 20
-9.072030074272773
 30
0.0
 10
123.0699313340511
 20
-9.47649020576027
 30
0.0
 10
122.7740032155622
 20
-9.765658544893322
 30
0.0
 10
122.3864425324658
 20
-9.765658544893322
 30
0.0
 10
121.9996329359634
 20
-9.765658544893322
 30
0.0
 10
121.7037048174746
 20
-9.47649020576027
 30
0.0
 10
121.7037048174746
 20
-9.072030074272773
 30
0.0
  0
SPLINE
  5
5A
330
1F
100
AcDbEntity
  8
Lager 1
 62
   250
420
  1842203
370
    35
100
AcDbSpline
210
0.0
220
0.0
230
1.0
 70
    11
 71
     3
 72
    17
 73
    13
 74
     0
 42
0.0000000001
 43
0.0000000001
 12
1.0
 22
0.0
 32
0.0
 13
1.0
 23
0.0
 33
0.0
 40
0.0
 40
0.0
 40
0.0
 40
0.0
 40
1.0
 40
1.0
 40
1.0
 40
2.0
 40
2.0
 40
2.0
 40
3.0
 40
3.0
 40
3.0
 40
4.0
 40
4.0
 40
4.0
 40
4.0
 10
125.93507072611
 20
-16.59686959595289
 30
0.0
 10
125.93507072611
 20
-16.18076762224132
 30
0.0
 10
126.2309988445982
 20
-15.89159928310955
 30
0.0
 10
126.6178084411006
 20
-15.89159928310955
 30
0.0
 10
127.0053691241958
 20
-15.89159928310955
 30
0.0
 10
127.3012972426833
 20
-16.18076762224132
 30
0.0
 10
127.3012972426833
 20
-16.59686959595289
 30
0.0
 10
127.3012972426833
 20
-17.00132972744167
 30
0.0
 10
127.0053691241958
 20
-17.29049806657344
 30
0.0
 10
126.6178084411006
 20
-17.29049806657344
 30
0.0
 10
126.2309988445982
 20
-17.29049806657344
 30
0.0
 10
125.93507072611
 20
-17.00132972744167
 30
0.0
 10
125.93507072611
 20
-16.59686959595289
 30
0.0
  0
SPLINE
  5
5B
330
1F
100
AcDbEntity
  8
Lager 1
 62
   250
420
  1842203
370
    35
100
AcDbSpline
210
0.0
220
0.0
230
1.0
 70
    11
 71
     3
 72
    17
 73
    13
 74
     0
 42
0.0000000001
 43
0.0000000001
 12
1.0
 22
0.0
 32
0.0
 13
1.0
 23
0.0
 33
0.0
 40
0.0
 40
0.0
 40
0.0
 40
0.0
 40
1.0
 40
1.0
 40
1.0
 40
2.0
 40
2.0
 40
2.0
 40
3.0
 40
3.0
 40
3.0
 40
4.0
 40
4.0
 40
4.0
 40
4.0
 10
118.7302941421412
 20
-9.086779120737791
 30
0.0
 10
118.7302941421412
 20
-8.670677147026861
 30
0.0
 10
119.0262222606307
 20
-8.381508807893168
 30
0.0
 10
119.413031857133
 20
-8.381508807893168
 30
0.0
 10
119.8005925402289
 20
-8.381508807893168
 30
0.0
 10
120.0965206587183
 20
-8.670677147026861
 30
0.0
 10
120.0965206587183
 20
-9.086779120737791
 30
0.0
 10
120.0965206587183
 20
-9.49123925222657
 30
0.0
 10
119.8005925402289
 20
-9.780407591356413
 30
0.0
 10
119.413031857133
 20
-9.780407591356413
 30
0.0
 10
119.0262222606307
 20
-9.780407591356413
 30
0.0
 10
118.7302941421412
 20
-9.49123925222657
 30
0.0
 10
118.7302941421412
 20
-9.086779120737791
 30
0.0
  0
SPLINE
  5
5C
330
1F
100
AcDbEntity
  8
Lager 1
 62
   250
420
  1842203
370
    35
100
AcDbSpline
210
0.0
220
0.0
230
1.0
 70
    11
 71
     3
 72
    47
 73
    43
 74
     0
 42
0.0000000001
 43
0.0000000001
 12
1.0
 22
0.0
 32
0.0
 13
1.0
 23
0.0
 33
0.0
 40
0.0
 40
0.0
 40
0.0
 40
0.0
 40
1.0
 40
1.0
 40
1.0
 40
2.0
 40
2.0
 40
2.0
 40
3.0
 40
3.0
 40
3.0
 40
4.0
 40
4.0
 40
4.0
 40
5.0
 40
5.0
 40
5.0
 40
6.0
 40
6.0
 40
6.0
 40
7.0
 40
7.0
 40
7.0
 40
8.0
 40
8.0
 40
8.0
 40
9.0
 40
9.0
 40
9.0
 40
10.0
 40
10.0
 40
10.0
 40
11.0
 40
11.0
 40
11.0
 40
12.0
 40
12.0
 40
12.0
 40
13.0
 40
13.0
 40
13.0
 40
14.0
 40
14.0
 40
14.0
 40
14.0
 10
128.2053271321782
 20
-12.08519463569481
 30
0.0
 10
128.2053271321782
 20
-12.08519463569481
 30
0.0
 10
129.2440698990339
 20
-12.08519463569481
 30
0.0
 10
129.2440698990339
 20
-12.08519463569481
 30
0.0
 10
129.2440698990339
 20
-12.08519463569481
 30
0.0
 10
129.2650366332797
 20
-15.26021443942943
 30
0.0
 10
129.2650366332797
 20
-15.26021443942943
 30
0.0
 10
129.2650366332797
 20
-15.26021443942943
 30
0.0
 10
128.3611521011773
 20
-15.26021443942943
 30
0.0
 10
128.3611521011773
 20
-15.26021443942943
 30
0.0
 10
128.3611521011773
 20
-15.26021443942943
 30
0.0
 10
128.3401853669314
 20
-14.80409268263238
 30
0.0
 10
128.3401853669314
 20
-14.80409268263238
 30
0.0
 10
127.9177781688204
 20
-15.09554250401881
 30
0.0
 10
127.3688717174517
 20
-15.24154604742851
 30
0.0
 10
126.7525361487051
 20
-15.24154604742851
 30
0.0
 10
125.1476117020599
 20
-15.24154604742851
 30
0.0
 10
123.7455318729781
 20
-14.16100837310672
 30
0.0
 10
123.7455318729781
 20
-12.19664772226805
 30
0.0
 10
123.7455318729781
 20
-10.36129401913314
 30
0.0
 10
125.0969005476711
 20
-9.066209153161056
 30
0.0
 10
126.9464645193407
 20
-9.066209153161056
 30
0.0
 10
127.9350533972387
 20
-9.066209153161056
 30
0.0
 10
128.7625925650405
 20
-9.400847045595633
 30
0.0
 10
129.3198579979028
 20
-10.04393135511872
 30
0.0
 10
129.3198579979028
 20
-10.04393135511872
 30
0.0
 10
128.6271770648555
 20
-10.73020373568867
 30
0.0
 10
128.6271770648555
 20
-10.73020373568867
 30
0.0
 10
128.1629749592798
 20
-10.25847854677031
 30
0.0
 10
127.6307864708963
 20
-10.04393135511872
 30
0.0
 10
126.9971756737321
 20
-10.04393135511872
 30
0.0
 10
125.7388703263276
 20
-10.04393135511872
 30
0.0
 10
124.8522610226447
 20
-10.91020047050379
 30
0.0
 10
124.8522610226447
 20
-12.18828874077445
 30
0.0
 10
124.8522610226447
 20
-13.56919248340794
 30
0.0
 10
125.8062994437043
 20
-14.28973668809818
 30
0.0
 10
126.8539584574865
 20
-14.28973668809818
 30
0.0
 10
127.3437947729728
 20
-14.28973668809818
 30
0.0
 10
127.8336310884592
 20
-14.13537416319553
 30
0.0
 10
128.2053271321782
 20
-13.81773286646495
 30
0.0
 10
128.2053271321782
 20
-13.81773286646495
 30
0.0
 10
128.2053271321782
 20
-12.08519463569481
 30
0.0
 10
128.2053271321782
 20
-12.08519463569481
 30
0.0
  0
SPLINE
  5
5D
330
1F
100
AcDbEntity
  8
Lager 1
 62
   250
420
  1842203
370
    35
100
AcDbSpline
210
0.0
220
0.0
230
1.0
 70
    11
 71
     3
 72
    47
 73
    43
 74
     0
 42
0.0000000001
 43
0.0000000001
 12
1.0
 22
0.0
 32
0.0
 13
1.0
 23
0.0
 33
0.0
 40
0.0
 40
0.0
 40
0.0
 40
0.0
 40
1.0
 40
1.0
 40
1.0
 40
2.0
 40
2.0
 40
2.0
 40
3.0
 40
3.0
 40
3.0
 40
4.0
 40
4.0
 40
4.0
 40
5.0
 40
5.0
 40
5.0
 40
6.0
 40
6.0
 40
6.0
 40
7.0
 40
7.0
 40
7.0
 40
8.0
 40
8.0
 40
8.0
 40
9.0
 40
9.0
 40
9.0
 40
10.0
 40
10.0
 40
10.0
 40
11.0
 40
11.0
 40
11.0
 40
12.0
 40
12.0
 40
12.0
 40
13.0
 40
13.0
 40
13.0
 40
14.0
 40
14.0
 40
14.0
 40
14.0
 10
133.9900148418464
 20
-12.08519463569481
 30
0.0
 10
133.9900148418464
 20
-12.08519463569481
 30
0.0
 10
135.028757608704
 20
-12.08519463569481
 30
0.0
 10
135.028757608704
 20
-12.08519463569481
 30
0.0
 10
135.028757608704
 20
-12.08519463569481
 30
0.0
 10
135.0202877343389
 20
-15.26021443942943
 30
0.0
 10
135.0202877343389
 20
-15.26021443942943
 30
0.0
 10
135.0202877343389
 20
-15.26021443942943
 30
0.0
 10
134.1164032022352
 20
-15.26021443942943
 30
0.0
 10
134.1164032022352
 20
-15.26021443942943
 30
0.0
 10
134.1164032022352
 20
-15.26021443942943
 30
0.0
 10
134.1248730765996
 20
-14.80409268263238
 30
0.0
 10
134.1248730765996
 20
-14.80409268263238
 30
0.0
 10
133.70246587849
 20
-15.09554250401881
 30
0.0
 10
133.1535594271199
 20
-15.24154604742851
 30
0.0
 10
132.5372238583746
 20
-15.24154604742851
 30
0.0
 10
130.9322994117294
 20
-15.24154604742851
 30
0.0
 10
129.5302195826464
 20
-14.16100837310672
 30
0.0
 10
129.5302195826464
 20
-12.19664772226805
 30
0.0
 10
129.5302195826464
 20
-10.36129401913314
 30
0.0
 10
130.8815882573393
 20
-9.066209153161056
 30
0.0
 10
132.7311522290109
 20
-9.066209153161056
 30
0.0
 10
133.7197411069088
 20
-9.066209153161056
 30
0.0
 10
134.54728027471
 20
-9.400847045595633
 30
0.0
 10
135.1045457075717
 20
-10.04393135511872
 30
0.0
 10
135.1045457075717
 20
-10.04393135511872
 30
0.0
 10
134.4118647745231
 20
-10.73020373568867
 30
0.0
 10
134.4118647745231
 20
-10.73020373568867
 30
0.0
 10
133.9476626689493
 20
-10.25847854677031
 30
0.0
 10
133.4154741805652
 20
-10.04393135511872
 30
0.0
 10
132.7818633834016
 20
-10.04393135511872
 30
0.0
 10
131.5235580359971
 20
-10.04393135511872
 30
0.0
 10
130.6369487323136
 20
-10.91020047050379
 30
0.0
 10
130.6369487323136
 20
-12.18828874077445
 30
0.0
 10
130.6369487323136
 20
-13.56919248340794
 30
0.0
 10
131.5909871533738
 20
-14.28973668809818
 30
0.0
 10
132.638646167156
 20
-14.28973668809818
 30
0.0
 10
133.1284824826423
 20
-14.28973668809818
 30
0.0
 10
133.6183187981268
 20
-14.13537416319553
 30
0.0
 10
133.9900148418464
 20
-13.81773286646495
 30
0.0
 10
133.9900148418464
 20
-13.81773286646495
 30
0.0
 10
133.9900148418464
 20
-12.08519463569481
 30
0.0
 10
133.9900148418464
 20
-12.08519463569481
 30
0.0
  0
SPLINE
  5
5E
330
1F
100
AcDbEntity
  8
Lager 1
 62
   250
420
  1842203
370
    35
100
AcDbSpline
210
0.0
220
0.0
230
1.0
 70
    11
 71
     3
 72
    26
 73
    22
 74
     0
 42
0.0000000001
 43
0.0000000001
 12
1.0
 22
0.0
 32
0.0
 13
1.0
 23
0.0
 33
0.0
 40
0.0
 40
0.0
 40
0.0
 40
0.0
 40
1.0
 40
1.0
 40
1.0
 40
2.0
 40
2.0
 40
2.0
 40
3.0
 40
3.0
 40
3.0
 40
4.0
 40
4.0
 40
4.0
 40
5.0
 40
5.0
 40
5.0
 40
6.0
 40
6.0
 40
6.0
 40
7.0
 40
7.0
 40
7.0
 40
7.0
 10
113.221591116743
 20
-21.43327776695419
 30
0.0
 10
113.221591116743
 20
-22.51494228258095
 30
0.0
 10
112.3873622565455
 20
-23.14573744313017
 30
0.0
 10
110.7906337517258
 20
-23.14573744313017
 30
0.0
 10
110.7906337517258
 20
-23.14573744313017
 30
0.0
 10
107.7032636491669
 20
-23.14573744313017
 30
0.0
 10
107.7032636491669
 20
-23.14573744313017
 30
0.0
 10
107.7032636491669
 20
-23.14573744313017
 30
0.0
 10
107.7032636491669
 20
-16.8365803046139
 30
0.0
 10
107.7032636491669
 20
-16.8365803046139
 30
0.0
 10
107.7032636491669
 20
-16.8365803046139
 30
0.0
 10
110.6128176290675
 20
-16.8365803046139
 30
0.0
 10
110.6128176290675
 20
-16.8365803046139
 30
0.0
 10
112.1034592268074
 20
-16.8365803046139
 30
0.0
 10
112.9021248624767
 20
-17.47641696292458
 30
0.0
 10
112.9021248624767
 20
-18.47700938195028
 30
0.0
 10
112.9021248624767
 20
-19.12588753802371
 30
0.0
 10
112.5826586082091
 20
-19.6035800031297
 30
0.0
 10
112.1034592268074
 20
-19.86487928845838
 30
0.0
 10
112.7689134621131
 20
-20.08127246823633
 30
0.0
 10
113.221591116743
 20
-20.61291253665707
 30
0.0
 10
113.221591116743
 20
-21.43327776695419
 30
0.0
  0
SPLINE
  5
5F
330
1F
100
AcDbEntity
  8
Lager 1
 62
   250
420
  1842203
370
    35
100
AcDbSpline
210
0.0
220
0.0
230
1.0
 70
    11
 71
     3
 72
    20
 73
    16
 74
     0
 42
0.0000000001
 43
0.0000000001
 12
1.0
 22
0.0
 32
0.0
 13
1.0
 23
0.0
 33
0.0
 40
0.0
 40
0.0
 40
0.0
 40
0.0
 40
1.0
 40
1.0
 40
1.0
 40
2.0
 40
2.0
 40
2.0
 40
3.0
 40
3.0
 40
3.0
 40
4.0
 40
4.0
 40
4.0
 40
5.0
 40
5.0
 40
5.0
 40
5.0
 10
108.8563559971157
 20
-17.75579924377811
 30
0.0
 10
108.8563559971157
 20
-17.75579924377811
 30
0.0
 10
108.8563559971157
 20
-19.49538341323976
 30
0.0
 10
108.8563559971157
 20
-19.49538341323976
 30
0.0
 10
108.8563559971157
 20
-19.49538341323976
 30
0.0
 10
110.4886477264674
 20
-19.49538341323976
 30
0.0
 10
110.4886477264674
 20
-19.49538341323976
 30
0.0
 10
111.2873133621341
 20
-19.49538341323976
 30
0.0
 10
111.7399910167659
 20
-19.20695963462285
 30
0.0
 10
111.7399910167659
 20
-18.63011207739159
 30
0.0
 10
111.7399910167659
 20
-18.04422302239438
 30
0.0
 10
111.2873133621341
 20
-17.75579924377811
 30
0.0
 10
110.4886477264674
 20
-17.75579924377811
 30
0.0
 10
110.4886477264674
 20
-17.75579924377811
 30
0.0
 10
108.8563559971157
 20
-17.75579924377811
 30
0.0
 10
108.8563559971157
 20
-17.75579924377811
 30
0.0
  0
SPLINE
  5
60
330
1F
100
AcDbEntity
  8
Lager 1
 62
   250
420
  1842203
370
    35
100
AcDbSpline
210
0.0
220
0.0
230
1.0
 70
    11
 71
     3
 72
    20
 73
    16
 74
     0
 42
0.0000000001
 43
0.0000000001
 12
1.0
 22
0.0
 32
0.0
 13
1.0
 23
0.0
 33
0.0
 40
0.0
 40
0.0
 40
0.0
 40
0.0
 40
1.0
 40
1.0
 40
1.0
 40
2.0
 40
2.0
 40
2.0
 40
3.0
 40
3.0
 40
3.0
 40
4.0
 40
4.0
 40
4.0
 40
5.0
 40
5.0
 40
5.0
 40
5.0
 10
112.0588545045152
 20
-21.31603967930343
 30
0.0
 10
112.0588545045152
 20
-20.68524451875582
 30
0.0
 10
111.5886966208762
 20
-20.40556085464315
 30
0.0
 10
110.719507302663
 20
-20.40556085464315
 30
0.0
 10
110.719507302663
 20
-20.40556085464315
 30
0.0
 10
108.8563559971157
 20
-20.40556085464315
 30
0.0
 10
108.8563559971157
 20
-20.40556085464315
 30
0.0
 10
108.8563559971157
 20
-20.40556085464315
 30
0.0
 10
108.8563559971157
 20
-22.22651850396532
 30
0.0
 10
108.8563559971157
 20
-22.22651850396532
 30
0.0
 10
108.8563559971157
 20
-22.22651850396532
 30
0.0
 10
110.719507302663
 20
-22.22651850396532
 30
0.0
 10
110.719507302663
 20
-22.22651850396532
 30
0.0
 10
111.5886966208762
 20
-22.22651850396532
 30
0.0
 10
112.0588545045152
 20
-21.94683483985137
 30
0.0
 10
112.0588545045152
 20
-21.31603967930343
 30
0.0
  0
SPLINE
  5
61
330
1F
100
AcDbEntity
  8
Lager 1
 62
   250
420
  1842203
370
    35
100
AcDbSpline
210
0.0
220
0.0
230
1.0
 70
    11
 71
     3
 72
    53
 73
    49
 74
     0
 42
0.0000000001
 43
0.0000000001
 12
1.0
 22
0.0
 32
0.0
 13
1.0
 23
0.0
 33
0.0
 40
0.0
 40
0.0
 40
0.0
 40
0.0
 40
1.0
 40
1.0
 40
1.0
 40
2.0
 40
2.0
 40
2.0
 40
3.0
 40
3.0
 40
3.0
 40
4.0
 40
4.0
 40
4.0
 40
5.0
 40
5.0
 40
5.0
 40
6.0
 40
6.0
 40
6.0
 40
7.0
 40
7.0
 40
7.0
 40
8.0
 40
8.0
 40
8.0
 40
9.0
 40
9.0
 40
9.0
 40
10.0
 40
10.0
 40
10.0
 40
11.0
 40
11.0
 40
11.0
 40
12.0
 40
12.0
 40
12.0
 40
13.0
 40
13.0
 40
13.0
 40
14.0
 40
14.0
 40
14.0
 40
15.0
 40
15.0
 40
15.0
 40
16.0
 40
16.0
 40
16.0
 40
16.0
 10
117.9356109758474
 20
-16.86159276352232
 30
0.0
 10
117.9356109758474
 20
-16.86159276352232
 30
0.0
 10
117.9356109758474
 20
-20.64603623635715
 30
0.0
 10
117.9356109758474
 20
-20.64603623635715
 30
0.0
 10
117.9356109758474
 20
-22.28125744245458
 30
0.0
 10
116.9924945413761
 20
-23.14573744313017
 30
0.0
 10
115.4978815281601
 20
-23.14573744313017
 30
0.0
 10
114.5781997925025
 20
-23.14573744313017
 30
0.0
 10
113.8345386834868
 20
-22.8574906477239
 30
0.0
 10
113.3361607553873
 20
-22.3825474184366
 30
0.0
 10
113.3361607553873
 20
-22.3825474184366
 30
0.0
 10
113.7428829725709
 20
-21.60399464674519
 30
0.0
 10
113.7428829725709
 20
-21.60399464674519
 30
0.0
 10
114.2178262018595
 20
-22.03988004467791
 30
0.0
 10
114.8005690456877
 20
-22.25808312918429
 30
0.0
 10
115.4827791667017
 20
-22.25808312918429
 30
0.0
 10
116.4409979626301
 20
-22.25808312918429
 30
0.0
 10
116.9388551196464
 20
-21.75970520108475
 30
0.0
 10
116.9388551196464
 20
-20.69290563398483
 30
0.0
 10
116.9388551196464
 20
-20.69290563398483
 30
0.0
 10
116.9388551196464
 20
-20.27993416378238
 30
0.0
 10
116.9388551196464
 20
-20.27993416378238
 30
0.0
 10
116.5633791675481
 20
-20.76294934488472
 30
0.0
 10
116.0191733839887
 20
-20.98089204385012
 30
0.0
 10
115.3598771907023
 20
-20.98089204385012
 30
0.0
 10
114.0110800812153
 20
-20.98089204385012
 30
0.0
 10
113.221591116743
 20
-20.1789045733423
 30
0.0
 10
113.221591116743
 20
-18.69158235531358
 30
0.0
 10
113.221591116743
 20
-18.69158235531358
 30
0.0
 10
113.221591116743
 20
-16.86159276352232
 30
0.0
 10
113.221591116743
 20
-16.86159276352232
 30
0.0
 10
113.221591116743
 20
-16.86159276352232
 30
0.0
 10
114.2178262018595
 20
-16.86159276352232
 30
0.0
 10
114.2178262018595
 20
-16.86159276352232
 30
0.0
 10
114.2178262018595
 20
-16.86159276352232
 30
0.0
 10
114.2178262018595
 20
-18.64471295768526
 30
0.0
 10
114.2178262018595
 20
-18.64471295768526
 30
0.0
 10
114.2178262018595
 20
-19.61803411507402
 30
0.0
 10
114.716204129959
 20
-20.10104929617316
 30
0.0
 10
115.5135046607025
 20
-20.10104929617316
 30
0.0
 10
116.3488214806315
 20
-20.10104929617316
 30
0.0
 10
116.9388551196464
 20
-19.61048293434544
 30
0.0
 10
116.9388551196464
 20
-18.54342298170453
 30
0.0
 10
116.9388551196464
 20
-18.54342298170453
 30
0.0
 10
116.9388551196464
 20
-16.86159276352232
 30
0.0
 10
116.9388551196464
 20
-16.86159276352232
 30
0.0
 10
116.9388551196464
 20
-16.86159276352232
 30
0.0
 10
117.9356109758474
 20
-16.86159276352232
 30
0.0
 10
117.9356109758474
 20
-16.86159276352232
 30
0.0
  0
SPLINE
  5
62
330
1F
100
AcDbEntity
  8
Lager 1
 62
   250
420
  1842203
370
    35
100
AcDbSpline
210
0.0
220
0.0
230
1.0
 70
    11
 71
     3
 72
    38
 73
    34
 74
     0
 42
0.0000000001
 43
0.0000000001
 12
1.0
 22
0.0
 32
0.0
 13
1.0
 23
0.0
 33
0.0
 40
0.0
 40
0.0
 40
0.0
 40
0.0
 40
1.0
 40
1.0
 40
1.0
 40
2.0
 40
2.0
 40
2.0
 40
3.0
 40
3.0
 40
3.0
 40
4.0
 40
4.0
 40
4.0
 40
5.0
 40
5.0
 40
5.0
 40
6.0
 40
6.0
 40
6.0
 40
7.0
 40
7.0
 40
7.0
 40
8.0
 40
8.0
 40
8.0
 40
9.0
 40
9.0
 40
9.0
 40
10.0
 40
10.0
 40
10.0
 40
11.0
 40
11.0
 40
11.0
 40
11.0
 10
122.3736768380607
 20
-23.14338772555275
 30
0.0
 10
122.3736768380607
 20
-23.14338772555275
 30
0.0
 10
121.1108286256239
 20
-21.30430877295208
 30
0.0
 10
121.1108286256239
 20
-21.30430877295208
 30
0.0
 10
121.0310382160022
 20
-21.31330769133334
 30
0.0
 10
120.9518477342731
 20
-21.31330769133334
 30
0.0
 10
120.8726572525447
 20
-21.31330769133334
 30
0.0
 10
120.8726572525447
 20
-21.31330769133334
 30
0.0
 10
119.4772249759974
 20
-21.31330769133334
 30
0.0
 10
119.4772249759974
 20
-21.31330769133334
 30
0.0
 10
119.4772249759974
 20
-21.31330769133334
 30
0.0
 10
119.4772249759974
 20
-23.14338772555275
 30
0.0
 10
119.4772249759974
 20
-23.14338772555275
 30
0.0
 10
119.4772249759974
 20
-23.14338772555275
 30
0.0
 10
118.3295629188044
 20
-23.14338772555275
 30
0.0
 10
118.3295629188044
 20
-23.14338772555275
 30
0.0
 10
118.3295629188044
 20
-23.14338772555275
 30
0.0
 10
118.3295629188044
 20
-16.86394248109975
 30
0.0
 10
118.3295629188044
 20
-16.86394248109975
 30
0.0
 10
118.3295629188044
 20
-16.86394248109975
 30
0.0
 10
120.8726572525447
 20
-16.86394248109975
 30
0.0
 10
120.8726572525447
 20
-16.86394248109975
 30
0.0
 10
122.4972619837925
 20
-16.86394248109975
 30
0.0
 10
123.5039409863915
 20
-17.7071411331561
 30
0.0
 10
123.5039409863915
 20
-19.0974740226208
 30
0.0
 10
123.5039409863915
 20
-20.04835973127356
 30
0.0
 10
123.0269983123342
 20
-20.74817561716729
 30
0.0
 10
122.1882991194678
 20
-21.08023570533041
 30
0.0
 10
122.1882991194678
 20
-21.08023570533041
 30
0.0
 10
123.6095282953633
 20
-23.14338772555275
 30
0.0
 10
123.6095282953633
 20
-23.14338772555275
 30
0.0
 10
123.6095282953633
 20
-23.14338772555275
 30
0.0
 10
122.3736768380607
 20
-23.14338772555275
 30
0.0
 10
122.3736768380607
 20
-23.14338772555275
 30
0.0
  0
SPLINE
  5
63
330
1F
100
AcDbEntity
  8
Lager 1
 62
   250
420
  1842203
370
    35
100
AcDbSpline
210
0.0
220
0.0
230
1.0
 70
    11
 71
     3
 72
    20
 73
    16
 74
     0
 42
0.0000000001
 43
0.0000000001
 12
1.0
 22
0.0
 32
0.0
 13
1.0
 23
0.0
 33
0.0
 40
0.0
 40
0.0
 40
0.0
 40
0.0
 40
1.0
 40
1.0
 40
1.0
 40
2.0
 40
2.0
 40
2.0
 40
3.0
 40
3.0
 40
3.0
 40
4.0
 40
4.0
 40
4.0
 40
5.0
 40
5.0
 40
5.0
 40
5.0
 10
120.8192636701652
 20
-17.85052389931809
 30
0.0
 10
120.8192636701652
 20
-17.85052389931809
 30
0.0
 10
119.4772249759974
 20
-17.85052389931809
 30
0.0
 10
119.4772249759974
 20
-17.85052389931809
 30
0.0
 10
119.4772249759974
 20
-17.85052389931809
 30
0.0
 10
119.4772249759974
 20
-20.3534230643022
 30
0.0
 10
119.4772249759974
 20
-20.3534230643022
 30
0.0
 10
119.4772249759974
 20
-20.3534230643022
 30
0.0
 10
120.8192636701652
 20
-20.3534230643022
 30
0.0
 10
120.8192636701652
 20
-20.3534230643022
 30
0.0
 10
121.8259426727629
 20
-20.3534230643022
 30
0.0
 10
122.3472800108172
 20
-19.88697912835291
 30
0.0
 10
122.3472800108172
 20
-19.0974740226208
 30
0.0
 10
122.3472800108172
 20
-18.30826888083469
 30
0.0
 10
121.8259426727629
 20
-17.85052389931809
 30
0.0
 10
120.8192636701652
 20
-17.85052389931809
 30
0.0
  0
SPLINE
  5
64
330
1F
100
AcDbEntity
  8
Lager 1
 62
   250
420
  1842203
370
    35
100
AcDbSpline
210
0.0
220
0.0
230
1.0
 70
    11
 71
     3
 72
    32
 73
    28
 74
     0
 42
0.0000000001
 43
0.0000000001
 12
1.0
 22
0.0
 32
0.0
 13
1.0
 23
0.0
 33
0.0
 40
0.0
 40
0.0
 40
0.0
 40
0.0
 40
1.0
 40
1.0
 40
1.0
 40
2.0
 40
2.0
 40
2.0
 40
3.0
 40
3.0
 40
3.0
 40
4.0
 40
4.0
 40
4.0
 40
5.0
 40
5.0
 40
5.0
 40
6.0
 40
6.0
 40
6.0
 40
7.0
 40
7.0
 40
7.0
 40
8.0
 40
8.0
 40
8.0
 40
9.0
 40
9.0
 40
9.0
 40
9.0
 10
129.3471263274506
 20
-19.70441343829576
 30
0.0
 10
129.3471263274506
 20
-19.70441343829576
 30
0.0
 10
129.3469402395112
 20
-23.1430176956591
 30
0.0
 10
129.3469402395112
 20
-23.1430176956591
 30
0.0
 10
129.3469402395112
 20
-23.1430176956591
 30
0.0
 10
128.2065186093973
 20
-23.1430176956591
 30
0.0
 10
128.2065186093973
 20
-23.1430176956591
 30
0.0
 10
128.2065186093973
 20
-23.1430176956591
 30
0.0
 10
128.2067046973361
 20
-21.55871635542369
 30
0.0
 10
128.2067046973361
 20
-21.55871635542369
 30
0.0
 10
128.2067046973361
 20
-21.55871635542369
 30
0.0
 10
125.0125703041601
 20
-21.55871635542369
 30
0.0
 10
125.0125703041601
 20
-21.55871635542369
 30
0.0
 10
125.0125703041601
 20
-21.55871635542369
 30
0.0
 10
125.0123751233799
 20
-23.1430176956591
 30
0.0
 10
125.0123751233799
 20
-23.1430176956591
 30
0.0
 10
125.0123751233799
 20
-23.1430176956591
 30
0.0
 10
123.8892416413453
 20
-23.1430176956591
 30
0.0
 10
123.8892416413453
 20
-23.1430176956591
 30
0.0
 10
123.8892416413453
 20
-23.1430176956591
 30
0.0
 10
123.8894368221243
 20
-19.70441343829576
 30
0.0
 10
123.8894368221243
 20
-19.70441343829576
 30
0.0
 10
123.8894368221243
 20
-17.83252430156977
 30
0.0
 10
124.986340010523
 20
-16.83428278582538
 30
0.0
 10
126.6185796463052
 20
-16.83428278582538
 30
0.0
 10
128.2502231390525
 20
-16.83428278582538
 30
0.0
 10
129.3471263274506
 20
-17.83252430156977
 30
0.0
 10
129.3471263274506
 20
-19.70441343829576
 30
0.0
  0
SPLINE
  5
65
330
1F
100
AcDbEntity
  8
Lager 1
 62
   250
420
  1842203
370
    35
100
AcDbSpline
210
0.0
220
0.0
230
1.0
 70
    11
 71
     3
 72
    20
 73
    16
 74
     0
 42
0.0000000001
 43
0.0000000001
 12
1.0
 22
0.0
 32
0.0
 13
1.0
 23
0.0
 33
0.0
 40
0.0
 40
0.0
 40
0.0
 40
0.0
 40
1.0
 40
1.0
 40
1.0
 40
2.0
 40
2.0
 40
2.0
 40
3.0
 40
3.0
 40
3.0
 40
4.0
 40
4.0
 40
4.0
 40
5.0
 40
5.0
 40
5.0
 40
5.0
 10
128.2067046973361
 20
-20.58700320483127
 30
0.0
 10
128.2067046973361
 20
-20.58700320483127
 30
0.0
 10
128.2067046973361
 20
-19.59770383464272
 30
0.0
 10
128.2067046973361
 20
-19.59770383464272
 30
0.0
 10
128.2067046973361
 20
-18.41197533370449
 30
0.0
 10
127.5837352234921
 20
-17.85040859268592
 30
0.0
 10
126.6096375007494
 20
-17.85040859268592
 30
0.0
 10
125.6355397780067
 20
-17.85040859268592
 30
0.0
 10
125.0125703041601
 20
-18.41197533370449
 30
0.0
 10
125.0125703041601
 20
-19.59770383464272
 30
0.0
 10
125.0125703041601
 20
-19.59770383464272
 30
0.0
 10
125.0125703041601
 20
-20.58700320483127
 30
0.0
 10
125.0125703041601
 20
-20.58700320483127
 30
0.0
 10
125.0125703041601
 20
-20.58700320483127
 30
0.0
 10
128.2067046973361
 20
-20.58700320483127
 30
0.0
 10
128.2067046973361
 20
-20.58700320483127
 30
0.0
  0
SPLINE
  5
66
330
1F
100
AcDbEntity
  8
Lager 1
 62
   250
420
  1842203
370
    35
100
AcDbSpline
210
0.0
220
0.0
230
1.0
 70
    11
 71
     3
 72
    41
 73
    37
 74
     0
 42
0.0000000001
 43
0.0000000001
 12
1.0
 22
0.0
 32
0.0
 13
1.0
 23
0.0
 33
0.0
 40
0.0
 40
0.0
 40
0.0
 40
0.0
 40
1.0
 40
1.0
 40
1.0
 40
2.0
 40
2.0
 40
2.0
 40
3.0
 40
3.0
 40
3.0
 40
4.0
 40
4.0
 40
4.0
 40
5.0
 40
5.0
 40
5.0
 40
6.0
 40
6.0
 40
6.0
 40
7.0
 40
7.0
 40
7.0
 40
8.0
 40
8.0
 40
8.0
 40
9.0
 40
9.0
 40
9.0
 40
10.0
 40
10.0
 40
10.0
 40
11.0
 40
11.0
 40
11.0
 40
12.0
 40
12.0
 40
12.0
 40
12.0
 10
135.0304698068229
 20
-19.46446385248355
 30
0.0
 10
135.0304698068229
 20
-19.46446385248355
 30
0.0
 10
135.0304698068229
 20
-23.1430176956591
 30
0.0
 10
135.0304698068229
 20
-23.1430176956591
 30
0.0
 10
135.0304698068229
 20
-23.1430176956591
 30
0.0
 10
133.8903593613788
 20
-23.1430176956591
 30
0.0
 10
133.8903593613788
 20
-23.1430176956591
 30
0.0
 10
133.8903593613788
 20
-23.1430176956591
 30
0.0
 10
133.8903593613788
 20
-19.50884119218249
 30
0.0
 10
133.8903593613788
 20
-19.50884119218249
 30
0.0
 10
133.8903593613788
 20
-18.37766578157706
 30
0.0
 10
133.3119647728096
 20
-17.83441566337405
 30
0.0
 10
132.4172699509405
 20
-17.83441566337405
 30
0.0
 10
131.4528818573278
 20
-17.83441566337405
 30
0.0
 10
130.7779888924963
 20
-18.39553585125451
 30
0.0
 10
130.7779888924963
 20
-19.62469881059442
 30
0.0
 10
130.7779888924963
 20
-19.62469881059442
 30
0.0
 10
130.7779888924963
 20
-23.1430176956591
 30
0.0
 10
130.7779888924963
 20
-23.1430176956591
 30
0.0
 10
130.7779888924963
 20
-23.1430176956591
 30
0.0
 10
129.6384741160415
 20
-23.1430176956591
 30
0.0
 10
129.6384741160415
 20
-23.1430176956591
 30
0.0
 10
129.6384741160415
 20
-23.1430176956591
 30
0.0
 10
129.6384741160415
 20
-16.83645619639536
 30
0.0
 10
129.6384741160415
 20
-16.83645619639536
 30
0.0
 10
129.6384741160415
 20
-16.83645619639536
 30
0.0
 10
130.7428444221301
 20
-16.83645619639536
 30
0.0
 10
130.7428444221301
 20
-16.83645619639536
 30
0.0
 10
130.7428444221301
 20
-16.83645619639536
 30
0.0
 10
130.7428444221301
 20
-17.69175294044402
 30
0.0
 10
130.7428444221301
 20
-17.69175294044402
 30
0.0
 10
131.1812567982259
 20
-17.09519044770143
 30
0.0
 10
131.8478103972081
 20
-16.81909787117992
 30
0.0
 10
132.6894906790336
 20
-16.81909787117992
 30
0.0
 10
134.1447100197944
 20
-16.81909787117992
 30
0.0
 10
135.0304698068229
 20
-17.75429818431765
 30
0.0
 10
135.0304698068229
 20
-19.46446385248355
 30
0.0
  0
SPLINE
  5
67
330
1F
100
AcDbEntity
  8
Lager 1
 62
   250
420
  1842203
370
    35
100
AcDbSpline
210
0.0
220
0.0
230
1.0
 70
    11
 71
     3
 72
    56
 73
    52
 74
     0
 42
0.0000000001
 43
0.0000000001
 12
1.0
 22
0.0
 32
0.0
 13
1.0
 23
0.0
 33
0.0
 40
0.0
 40
0.0
 40
0.0
 40
0.0
 40
1.0
 40
1.0
 40
1.0
 40
2.0
 40
2.0
 40
2.0
 40
3.0
 40
3.0
 40
3.0
 40
4.0
 40
4.0
 40
4.0
 40
5.0
 40
5.0
 40
5.0
 40
6.0
 40
6.0
 40
6.0
 40
7.0
 40
7.0
 40
7.0
 40
8.0
 40
8.0
 40
8.0
 40
9.0
 40
9.0
 40
9.0
 40
10.0
 40
10.0
 40
10.0
 40
11.0
 40
11.0
 40
11.0
 40
12.0
 40
12.0
 40
12.0
 40
13.0
 40
13.0
 40
13.0
 40
14.0
 40
14.0
 40
14.0
 40
15.0
 40
15.0
 40
15.0
 40
16.0
 40
16.0
 40
16.0
 40
17.0
 40
17.0
 40
17.0
 40
17.0
 10
110.9222251141595
 20
-24.40264254836856
 30
0.0
 10
110.9222251141595
 20
-24.40264254836856
 30
0.0
 10
110.9222251141595
 20
-25.78488976169027
 30
0.0
 10
110.9222251141595
 20
-25.78488976169027
 30
0.0
 10
110.9222251141595
 20
-26.42481280968257
 30
0.0
 10
110.5911841250076
 20
-26.75686102293834
 30
0.0
 10
110.0103515578374
 20
-26.75686102293834
 30
0.0
 10
109.6826679823696
 20
-26.75686102293834
 30
0.0
 10
109.435562335295
 20
-26.64035876813787
 30
0.0
 10
109.294550960607
 20
-26.46476603251145
 30
0.0
 10
109.1501821722334
 20
-26.64035876813787
 30
0.0
 10
108.9091198697886
 20
-26.75686102293834
 30
0.0
 10
108.5814362943235
 20
-26.75686102293834
 30
0.0
 10
108.0006037271507
 20
-26.75686102293834
 30
0.0
 10
107.6668768070531
 20
-26.42481280968257
 30
0.0
 10
107.6668768070531
 20
-25.78488976169027
 30
0.0
 10
107.6668768070531
 20
-25.78488976169027
 30
0.0
 10
107.6668768070531
 20
-24.40264254836856
 30
0.0
 10
107.6668768070531
 20
-24.40264254836856
 30
0.0
 10
107.6668768070531
 20
-24.40264254836856
 30
0.0
 10
108.0838675864907
 20
-24.40264254836856
 30
0.0
 10
108.0838675864907
 20
-24.40264254836856
 30
0.0
 10
108.0838675864907
 20
-24.40264254836856
 30
0.0
 10
108.0838675864907
 20
-25.77179584832494
 30
0.0
 10
108.0838675864907
 20
-25.77179584832494
 30
0.0
 10
108.0838675864907
 20
-26.20288776523039
 30
0.0
 10
108.2671823735862
 20
-26.37848050085681
 30
0.0
 10
108.5814362943235
 20
-26.37848050085681
 30
0.0
 10
108.8930042841126
 20
-26.37848050085681
 30
0.0
 10
109.0857198295189
 20
-26.20288776523039
 30
0.0
 10
109.0857198295189
 20
-25.77179584832494
 30
0.0
 10
109.0857198295189
 20
-25.77179584832494
 30
0.0
 10
109.0857198295189
 20
-24.40264254836856
 30
0.0
 10
109.0857198295189
 20
-24.40264254836856
 30
0.0
 10
109.0857198295189
 20
-24.40264254836856
 30
0.0
 10
109.5033820916932
 20
-24.40264254836856
 30
0.0
 10
109.5033820916932
 20
-24.40264254836856
 30
0.0
 10
109.5033820916932
 20
-24.40264254836856
 30
0.0
 10
109.5033820916932
 20
-25.77179584832494
 30
0.0
 10
109.5033820916932
 20
-25.77179584832494
 30
0.0
 10
109.5033820916932
 20
-26.20288776523039
 30
0.0
 10
109.696097637102
 20
-26.37848050085681
 30
0.0
 10
110.0103515578374
 20
-26.37848050085681
 30
0.0
 10
110.3185621339423
 20
-26.37848050085681
 30
0.0
 10
110.5079202656682
 20
-26.20288776523039
 30
0.0
 10
110.5079202656682
 20
-25.77179584832494
 30
0.0
 10
110.5079202656682
 20
-25.77179584832494
 30
0.0
 10
110.5079202656682
 20
-24.40264254836856
 30
0.0
 10
110.5079202656682
 20
-24.40264254836856
 30
0.0
 10
110.5079202656682
 20
-24.40264254836856
 30
0.0
 10
110.9222251141595
 20
-24.40264254836856
 30
0.0
 10
110.9222251141595
 20
-24.40264254836856
 30
0.0
  0
SPLINE
  5
68
330
1F
100
AcDbEntity
  8
Lager 1
 62
   250
420
  1842203
370
    35
100
AcDbSpline
210
0.0
220
0.0
230
1.0
 70
    11
 71
     3
 72
    56
 73
    52
 74
     0
 42
0.0000000001
 43
0.0000000001
 12
1.0
 22
0.0
 32
0.0
 13
1.0
 23
0.0
 33
0.0
 40
0.0
 40
0.0
 40
0.0
 40
0.0
 40
1.0
 40
1.0
 40
1.0
 40
2.0
 40
2.0
 40
2.0
 40
3.0
 40
3.0
 40
3.0
 40
4.0
 40
4.0
 40
4.0
 40
5.0
 40
5.0
 40
5.0
 40
6.0
 40
6.0
 40
6.0
 40
7.0
 40
7.0
 40
7.0
 40
8.0
 40
8.0
 40
8.0
 40
9.0
 40
9.0
 40
9.0
 40
10.0
 40
10.0
 40
10.0
 40
11.0
 40
11.0
 40
11.0
 40
12.0
 40
12.0
 40
12.0
 40
13.0
 40
13.0
 40
13.0
 40
14.0
 40
14.0
 40
14.0
 40
15.0
 40
15.0
 40
15.0
 40
16.0
 40
16.0
 40
16.0
 40
17.0
 40
17.0
 40
17.0
 40
17.0
 10
113.2173531079066
 20
-26.5010261002903
 30
0.0
 10
113.0152368041856
 20
-26.66352492254753
 30
0.0
 10
112.6815098840894
 20
-26.75686102293834
 30
0.0
 10
112.3148803098978
 20
-26.75686102293834
 30
0.0
 10
111.6507838833863
 20
-26.75686102293834
 30
0.0
 10
111.3069847222392
 20
-26.47148085987733
 30
0.0
 10
111.3069847222392
 20
-26.08000642443047
 30
0.0
 10
111.3069847222392
 20
-25.8147707434684
 30
0.0
 10
111.4641116826072
 20
-25.62272668079563
 30
0.0
 10
111.6857009856891
 20
-25.53644114914227
 30
0.0
 10
111.5091010259602
 20
-25.44008337643817
 30
0.0
 10
111.4036782363123
 20
-25.25777581344844
 30
0.0
 10
111.4036782363123
 20
-25.03920818267856
 30
0.0
 10
111.4036782363123
 20
-24.68097214269469
 30
0.0
 10
111.7118888124172
 20
-24.36940415290557
 30
0.0
 10
112.3632270669331
 20
-24.36940415290557
 30
0.0
 10
112.6492787127314
 20
-24.36940415290557
 30
0.0
 10
112.9313014621088
 20
-24.43554520246255
 30
0.0
 10
113.1307318348842
 20
-24.54163947484712
 30
0.0
 10
113.1307318348842
 20
-24.54163947484712
 30
0.0
 10
113.011879390502
 20
-24.88308844641564
 30
0.0
 10
113.011879390502
 20
-24.88308844641564
 30
0.0
 10
112.8097630867817
 20
-24.77397250171649
 30
0.0
 10
112.5975745420126
 20
-24.73066186520531
 30
0.0
 10
112.379342652613
 20
-24.73066186520531
 30
0.0
 10
112.0006263891625
 20
-24.73066186520531
 30
0.0
 10
111.8240264294329
 20
-24.86999453305287
 30
0.0
 10
111.8240264294329
 20
-25.06539600940795
 30
0.0
 10
111.8240264294329
 20
-25.26449064081304
 30
0.0
 10
111.962351873176
 20
-25.37058491319761
 30
0.0
 10
112.2282590368735
 20
-25.37058491319761
 30
0.0
 10
112.2282590368735
 20
-25.37058491319761
 30
0.0
 10
112.8225212587787
 20
-25.37058491319761
 30
0.0
 10
112.8225212587787
 20
-25.37058491319761
 30
0.0
 10
112.8225212587787
 20
-25.37058491319761
 30
0.0
 10
112.8225212587787
 20
-25.72882095318148
 30
0.0
 10
112.8225212587787
 20
-25.72882095318148
 30
0.0
 10
112.8225212587787
 20
-25.72882095318148
 30
0.0
 10
112.206100106567
 20
-25.72882095318148
 30
0.0
 10
112.206100106567
 20
-25.72882095318148
 30
0.0
 10
111.9106477024565
 20
-25.72882095318148
 30
0.0
 10
111.7280043980971
 20
-25.83155781188375
 30
0.0
 10
111.7280043980971
 20
-26.05012544265106
 30
0.0
 10
111.7280043980971
 20
-26.25593490142332
 30
0.0
 10
111.9140051161388
 20
-26.39493182790445
 30
0.0
 10
112.33435330926
 20
-26.39493182790445
 30
0.0
 10
112.6170475413748
 20
-26.39493182790445
 30
0.0
 10
112.8997417734883
 20
-26.31233945129983
 30
0.0
 10
113.0823850778477
 20
-26.1696493697674
 30
0.0
 10
113.0823850778477
 20
-26.1696493697674
 30
0.0
 10
113.2173531079066
 20
-26.5010261002903
 30
0.0
 10
113.2173531079066
 20
-26.5010261002903
 30
0.0
  0
SPLINE
  5
69
330
1F
100
AcDbEntity
  8
Lager 1
 62
   250
420
  1842203
370
    35
100
AcDbSpline
210
0.0
220
0.0
230
1.0
 70
    11
 71
     3
 72
    26
 73
    22
 74
     0
 42
0.0000000001
 43
0.0000000001
 12
1.0
 22
0.0
 32
0.0
 13
1.0
 23
0.0
 33
0.0
 40
0.0
 40
0.0
 40
0.0
 40
0.0
 40
1.0
 40
1.0
 40
1.0
 40
2.0
 40
2.0
 40
2.0
 40
3.0
 40
3.0
 40
3.0
 40
4.0
 40
4.0
 40
4.0
 40
5.0
 40
5.0
 40
5.0
 40
6.0
 40
6.0
 40
6.0
 40
7.0
 40
7.0
 40
7.0
 40
7.0
 10
115.5185244462847
 20
-26.12701021599423
 30
0.0
 10
115.5185244462847
 20
-26.52486373743798
 30
0.0
 10
115.2170286975457
 20
-26.75686102293834
 30
0.0
 10
114.6388820613185
 20
-26.75686102293834
 30
0.0
 10
114.6388820613185
 20
-26.75686102293834
 30
0.0
 10
113.5215347875937
 20
-26.75686102293834
 30
0.0
 10
113.5215347875937
 20
-26.75686102293834
 30
0.0
 10
113.5215347875937
 20
-26.75686102293834
 30
0.0
 10
113.5215347875937
 20
-24.43621668519927
 30
0.0
 10
113.5215347875937
 20
-24.43621668519927
 30
0.0
 10
113.5215347875937
 20
-24.43621668519927
 30
0.0
 10
114.5750912013413
 20
-24.43621668519927
 30
0.0
 10
114.5750912013413
 20
-24.43621668519927
 30
0.0
 10
115.1142918388421
 20
-24.43621668519927
 30
0.0
 10
115.4030294155861
 20
-24.67157138438193
 30
0.0
 10
115.4030294155861
 20
-25.03954392404756
 30
0.0
 10
115.4030294155861
 20
-25.27825603691381
 30
0.0
 10
115.2875343848901
 20
-25.45384877253894
 30
0.0
 10
115.1142918388421
 20
-25.55020654524304
 30
0.0
 10
115.3553541412875
 20
-25.62944150816408
 30
0.0
 10
115.5185244462847
 20
-25.82517872588686
 30
0.0
 10
115.5185244462847
 20
-26.12701021599423
 30
0.0
  0
SPLINE
  5
6A
330
1F
100
AcDbEntity
  8
Lager 1
 62
   250
420
  1842203
370
    35
100
AcDbSpline
210
0.0
220
0.0
230
1.0
 70
    11
 71
     3
 72
    20
 73
    16
 74
     0
 42
0.0000000001
 43
0.0000000001
 12
1.0
 22
0.0
 32
0.0
 13
1.0
 23
0.0
 33
0.0
 40
0.0
 40
0.0
 40
0.0
 40
0.0
 40
1.0
 40
1.0
 40
1.0
 40
2.0
 40
2.0
 40
2.0
 40
3.0
 40
3.0
 40
3.0
 40
4.0
 40
4.0
 40
4.0
 40
5.0
 40
5.0
 40
5.0
 40
5.0
 10
113.9391970497687
 20
-24.77430824308549
 30
0.0
 10
113.9391970497687
 20
-24.77430824308549
 30
0.0
 10
113.9391970497687
 20
-25.41423129107778
 30
0.0
 10
113.9391970497687
 20
-25.41423129107778
 30
0.0
 10
113.9391970497687
 20
-25.41423129107778
 30
0.0
 10
114.5301018579871
 20
-25.41423129107778
 30
0.0
 10
114.5301018579871
 20
-25.41423129107778
 30
0.0
 10
114.8188394347317
 20
-25.41423129107778
 30
0.0
 10
114.9826812224662
 20
-25.30813701869321
 30
0.0
 10
114.9826812224662
 20
-25.09594847392407
 30
0.0
 10
114.9826812224662
 20
-24.88040251547134
 30
0.0
 10
114.8188394347317
 20
-24.77430824308549
 30
0.0
 10
114.5301018579871
 20
-24.77430824308549
 30
0.0
 10
114.5301018579871
 20
-24.77430824308549
 30
0.0
 10
113.9391970497687
 20
-24.77430824308549
 30
0.0
 10
113.9391970497687
 20
-24.77430824308549
 30
0.0
  0
SPLINE
  5
6B
330
1F
100
AcDbEntity
  8
Lager 1
 62
   250
420
  1842203
370
    35
100
AcDbSpline
210
0.0
220
0.0
230
1.0
 70
    11
 71
     3
 72
    20
 73
    16
 74
     0
 42
0.0000000001
 43
0.0000000001
 12
1.0
 22
0.0
 32
0.0
 13
1.0
 23
0.0
 33
0.0
 40
0.0
 40
0.0
 40
0.0
 40
0.0
 40
1.0
 40
1.0
 40
1.0
 40
2.0
 40
2.0
 40
2.0
 40
3.0
 40
3.0
 40
3.0
 40
4.0
 40
4.0
 40
4.0
 40
5.0
 40
5.0
 40
5.0
 40
5.0
 10
115.0981762531648
 20
-26.08369957948305
 30
0.0
 10
115.0981762531648
 20
-25.8517022939814
 30
0.0
 10
114.9282911208011
 20
-25.7489654352817
 30
0.0
 10
114.6133657173271
 20
-25.7489654352817
 30
0.0
 10
114.6133657173271
 20
-25.7489654352817
 30
0.0
 10
113.9391970497687
 20
-25.7489654352817
 30
0.0
 10
113.9391970497687
 20
-25.7489654352817
 30
0.0
 10
113.9391970497687
 20
-25.7489654352817
 30
0.0
 10
113.9391970497687
 20
-26.4187694650534
 30
0.0
 10
113.9391970497687
 20
-26.4187694650534
 30
0.0
 10
113.9391970497687
 20
-26.4187694650534
 30
0.0
 10
114.6133657173271
 20
-26.4187694650534
 30
0.0
 10
114.6133657173271
 20
-26.4187694650534
 30
0.0
 10
114.9282911208011
 20
-26.4187694650534
 30
0.0
 10
115.0981762531648
 20
-26.31603260635242
 30
0.0
 10
115.0981762531648
 20
-26.08369957948305
 30
0.0
  0
SPLINE
  5
6C
330
1F
100
AcDbEntity
  8
Lager 1
 62
   250
420
  1842203
370
    35
100
AcDbSpline
210
0.0
220
0.0
230
1.0
 70
    11
 71
     3
 72
    26
 73
    22
 74
     0
 42
0.0000000001
 43
0.0000000001
 12
1.0
 22
0.0
 32
0.0
 13
1.0
 23
0.0
 33
0.0
 40
0.0
 40
0.0
 40
0.0
 40
0.0
 40
1.0
 40
1.0
 40
1.0
 40
2.0
 40
2.0
 40
2.0
 40
3.0
 40
3.0
 40
3.0
 40
4.0
 40
4.0
 40
4.0
 40
5.0
 40
5.0
 40
5.0
 40
6.0
 40
6.0
 40
6.0
 40
7.0
 40
7.0
 40
7.0
 40
7.0
 10
117.9170607814694
 20
-26.12701021599423
 30
0.0
 10
117.9170607814694
 20
-26.52486373743798
 30
0.0
 10
117.6155650327304
 20
-26.75686102293834
 30
0.0
 10
117.0374183965058
 20
-26.75686102293834
 30
0.0
 10
117.0374183965058
 20
-26.75686102293834
 30
0.0
 10
115.9200711227804
 20
-26.75686102293834
 30
0.0
 10
115.9200711227804
 20
-26.75686102293834
 30
0.0
 10
115.9200711227804
 20
-26.75686102293834
 30
0.0
 10
115.9200711227804
 20
-24.43621668519927
 30
0.0
 10
115.9200711227804
 20
-24.43621668519927
 30
0.0
 10
115.9200711227804
 20
-24.43621668519927
 30
0.0
 10
116.9736275365274
 20
-24.43621668519927
 30
0.0
 10
116.9736275365274
 20
-24.43621668519927
 30
0.0
 10
117.5128281740282
 20
-24.43621668519927
 30
0.0
 10
117.801565750774
 20
-24.67157138438193
 30
0.0
 10
117.801565750774
 20
-25.03954392404756
 30
0.0
 10
117.801565750774
 20
-25.27825603691381
 30
0.0
 10
117.6860707200742
 20
-25.45384877253894
 30
0.0
 10
117.5128281740282
 20
-25.55020654524304
 30
0.0
 10
117.7538904764729
 20
-25.62944150816408
 30
0.0
 10
117.9170607814694
 20
-25.82517872588686
 30
0.0
 10
117.9170607814694
 20
-26.12701021599423
 30
0.0
  0
SPLINE
  5
6D
330
1F
100
AcDbEntity
  8
Lager 1
 62
   250
420
  1842203
370
    35
100
AcDbSpline
210
0.0
220
0.0
230
1.0
 70
    11
 71
     3
 72
    20
 73
    16
 74
     0
 42
0.0000000001
 43
0.0000000001
 12
1.0
 22
0.0
 32
0.0
 13
1.0
 23
0.0
 33
0.0
 40
0.0
 40
0.0
 40
0.0
 40
0.0
 40
1.0
 40
1.0
 40
1.0
 40
2.0
 40
2.0
 40
2.0
 40
3.0
 40
3.0
 40
3.0
 40
4.0
 40
4.0
 40
4.0
 40
5.0
 40
5.0
 40
5.0
 40
5.0
 10
116.3377333849541
 20
-24.77430824308549
 30
0.0
 10
116.3377333849541
 20
-24.77430824308549
 30
0.0
 10
116.3377333849541
 20
-25.41423129107778
 30
0.0
 10
116.3377333849541
 20
-25.41423129107778
 30
0.0
 10
116.3377333849541
 20
-25.41423129107778
 30
0.0
 10
116.9286381931738
 20
-25.41423129107778
 30
0.0
 10
116.9286381931738
 20
-25.41423129107778
 30
0.0
 10
117.2173757699183
 20
-25.41423129107778
 30
0.0
 10
117.3812175576529
 20
-25.30813701869321
 30
0.0
 10
117.3812175576529
 20
-25.09594847392407
 30
0.0
 10
117.3812175576529
 20
-24.88040251547134
 30
0.0
 10
117.2173757699183
 20
-24.77430824308549
 30
0.0
 10
116.9286381931738
 20
-24.77430824308549
 30
0.0
 10
116.9286381931738
 20
-24.77430824308549
 30
0.0
 10
116.3377333849541
 20
-24.77430824308549
 30
0.0
 10
116.3377333849541
 20
-24.77430824308549
 30
0.0
  0
SPLINE
  5
6E
330
1F
100
AcDbEntity
  8
Lager 1
 62
   250
420
  1842203
370
    35
100
AcDbSpline
210
0.0
220
0.0
230
1.0
 70
    11
 71
     3
 72
    20
 73
    16
 74
     0
 42
0.0000000001
 43
0.0000000001
 12
1.0
 22
0.0
 32
0.0
 13
1.0
 23
0.0
 33
0.0
 40
0.0
 40
0.0
 40
0.0
 40
0.0
 40
1.0
 40
1.0
 40
1.0
 40
2.0
 40
2.0
 40
2.0
 40
3.0
 40
3.0
 40
3.0
 40
4.0
 40
4.0
 40
4.0
 40
5.0
 40
5.0
 40
5.0
 40
5.0
 10
117.4967125883502
 20
-26.08369957948305
 30
0.0
 10
117.4967125883502
 20
-25.8517022939814
 30
0.0
 10
117.3268274559878
 20
-25.7489654352817
 30
0.0
 10
117.0119020525151
 20
-25.7489654352817
 30
0.0
 10
117.0119020525151
 20
-25.7489654352817
 30
0.0
 10
116.3377333849541
 20
-25.7489654352817
 30
0.0
 10
116.3377333849541
 20
-25.7489654352817
 30
0.0
 10
116.3377333849541
 20
-25.7489654352817
 30
0.0
 10
116.3377333849541
 20
-26.4187694650534
 30
0.0
 10
116.3377333849541
 20
-26.4187694650534
 30
0.0
 10
116.3377333849541
 20
-26.4187694650534
 30
0.0
 10
117.0119020525151
 20
-26.4187694650534
 30
0.0
 10
117.0119020525151
 20
-26.4187694650534
 30
0.0
 10
117.3268274559878
 20
-26.4187694650534
 30
0.0
 10
117.4967125883502
 20
-26.31603260635242
 30
0.0
 10
117.4967125883502
 20
-26.08369957948305
 30
0.0
  0
SPLINE
  5
6F
330
1F
100
AcDbEntity
  8
Lager 1
 62
   250
420
  1842203
370
    35
100
AcDbSpline
210
0.0
220
0.0
230
1.0
 70
    11
 71
     3
 72
    47
 73
    43
 74
     0
 42
0.0000000001
 43
0.0000000001
 12
1.0
 22
0.0
 32
0.0
 13
1.0
 23
0.0
 33
0.0
 40
0.0
 40
0.0
 40
0.0
 40
0.0
 40
1.0
 40
1.0
 40
1.0
 40
2.0
 40
2.0
 40
2.0
 40
3.0
 40
3.0
 40
3.0
 40
4.0
 40
4.0
 40
4.0
 40
5.0
 40
5.0
 40
5.0
 40
6.0
 40
6.0
 40
6.0
 40
7.0
 40
7.0
 40
7.0
 40
8.0
 40
8.0
 40
8.0
 40
9.0
 40
9.0
 40
9.0
 40
10.0
 40
10.0
 40
10.0
 40
11.0
 40
11.0
 40
11.0
 40
12.0
 40
12.0
 40
12.0
 40
13.0
 40
13.0
 40
13.0
 40
14.0
 40
14.0
 40
14.0
 40
14.0
 10
123.8858708272359
 20
-25.53644114914227
 30
0.0
 10
123.8858708272359
 20
-25.53644114914227
 30
0.0
 10
124.2807026763644
 20
-25.53644114914227
 30
0.0
 10
124.2807026763644
 20
-25.53644114914227
 30
0.0
 10
124.2807026763644
 20
-25.53644114914227
 30
0.0
 10
124.2807026763644
 20
-26.72328688610763
 30
0.0
 10
124.2807026763644
 20
-26.72328688610763
 30
0.0
 10
124.2807026763644
 20
-26.72328688610763
 30
0.0
 10
123.9369035152186
 20
-26.72328688610763
 30
0.0
 10
123.9369035152186
 20
-26.72328688610763
 30
0.0
 10
123.9369035152186
 20
-26.72328688610763
 30
0.0
 10
123.9369035152186
 20
-26.58731163194237
 30
0.0
 10
123.9369035152186
 20
-26.58731163194237
 30
0.0
 10
123.776419141169
 20
-26.70045647306311
 30
0.0
 10
123.5682594928169
 20
-26.75686102293834
 30
0.0
 10
123.3339120177387
 20
-26.75686102293834
 30
0.0
 10
122.7235342101562
 20
-26.75686102293834
 30
0.0
 10
122.1903769172852
 20
-26.33852727802665
 30
0.0
 10
122.1903769172852
 20
-25.57941604428573
 30
0.0
 10
122.1903769172852
 20
-24.86999453305287
 30
0.0
 10
122.7040612107946
 20
-24.36940415290557
 30
0.0
 10
123.4071036360299
 20
-24.36940415290557
 30
0.0
 10
123.783133968533
 20
-24.36940415290557
 30
0.0
 10
124.0973878892683
 20
-24.49866457970495
 30
0.0
 10
124.3095764340394
 20
-24.74711319225166
 30
0.0
 10
124.3095764340394
 20
-24.74711319225166
 30
0.0
 10
124.0463552012849
 20
-25.01234887321374
 30
0.0
 10
124.0463552012849
 20
-25.01234887321374
 30
0.0
 10
123.8697552415559
 20
-24.83004131022271
 30
0.0
 10
123.667638937835
 20
-24.74711319225166
 30
0.0
 10
123.4265766353909
 20
-24.74711319225166
 30
0.0
 10
122.9484809269217
 20
-24.74711319225166
 30
0.0
 10
122.6113965931412
 20
-25.08218307782202
 30
0.0
 10
122.6113965931412
 20
-25.57605863060215
 30
0.0
 10
122.6113965931412
 20
-26.10988740621116
 30
0.0
 10
122.9739972709137
 20
-26.38855274190628
 30
0.0
 10
123.3721865337252
 20
-26.38855274190628
 30
0.0
 10
123.5581872517675
 20
-26.38855274190628
 30
0.0
 10
123.7448594525465
 20
-26.32879077834747
 30
0.0
 10
123.8858708272359
 20
-26.20624517891398
 30
0.0
 10
123.8858708272359
 20
-26.20624517891398
 30
0.0
 10
123.8858708272359
 20
-25.53644114914227
 30
0.0
 10
123.8858708272359
 20
-25.53644114914227
 30
0.0
  0
SPLINE
  5
70
330
1F
100
AcDbEntity
  8
Lager 1
 62
   250
420
  1842203
370
    35
100
AcDbSpline
210
0.0
220
0.0
230
1.0
 70
    11
 71
     3
 72
    38
 73
    34
 74
     0
 42
0.0000000001
 43
0.0000000001
 12
1.0
 22
0.0
 32
0.0
 13
1.0
 23
0.0
 33
0.0
 40
0.0
 40
0.0
 40
0.0
 40
0.0
 40
1.0
 40
1.0
 40
1.0
 40
2.0
 40
2.0
 40
2.0
 40
3.0
 40
3.0
 40
3.0
 40
4.0
 40
4.0
 40
4.0
 40
5.0
 40
5.0
 40
5.0
 40
6.0
 40
6.0
 40
6.0
 40
7.0
 40
7.0
 40
7.0
 40
8.0
 40
8.0
 40
8.0
 40
9.0
 40
9.0
 40
9.0
 40
10.0
 40
10.0
 40
10.0
 40
11.0
 40
11.0
 40
11.0
 40
11.0
 10
126.2548619220102
 20
-26.75686102293834
 30
0.0
 10
126.2548619220102
 20
-26.75686102293834
 30
0.0
 10
125.7962392129026
 20
-26.07732049348745
 30
0.0
 10
125.7962392129026
 20
-26.07732049348745
 30
0.0
 10
125.7673654552289
 20
-26.08067790716719
 30
0.0
 10
125.7378202148185
 20
-26.08067790716719
 30
0.0
 10
125.7089464571441
 20
-26.08067790716719
 30
0.0
 10
125.7089464571441
 20
-26.08067790716719
 30
0.0
 10
125.2019769909993
 20
-26.08067790716719
 30
0.0
 10
125.2019769909993
 20
-26.08067790716719
 30
0.0
 10
125.2019769909993
 20
-26.08067790716719
 30
0.0
 10
125.2019769909993
 20
-26.75686102293834
 30
0.0
 10
125.2019769909993
 20
-26.75686102293834
 30
0.0
 10
125.2019769909993
 20
-26.75686102293834
 30
0.0
 10
124.7843147288256
 20
-26.75686102293834
 30
0.0
 10
124.7843147288256
 20
-26.75686102293834
 30
0.0
 10
124.7843147288256
 20
-26.75686102293834
 30
0.0
 10
124.7843147288256
 20
-24.43621668519927
 30
0.0
 10
124.7843147288256
 20
-24.43621668519927
 30
0.0
 10
124.7843147288256
 20
-24.43621668519927
 30
0.0
 10
125.7089464571441
 20
-24.43621668519927
 30
0.0
 10
125.7089464571441
 20
-24.43621668519927
 30
0.0
 10
126.2998512653638
 20
-24.43621668519927
 30
0.0
 10
126.6658093568199
 20
-24.74778467498838
 30
0.0
 10
126.6658093568199
 20
-25.26146896849717
 30
0.0
 10
126.6658093568199
 20
-25.61299018111772
 30
0.0
 10
126.4925668107727
 20
-25.87151103471263
 30
0.0
 10
126.1877136483494
 20
-25.99439237551383
 30
0.0
 10
126.1877136483494
 20
-25.99439237551383
 30
0.0
 10
126.7047553555431
 20
-26.75686102293834
 30
0.0
 10
126.7047553555431
 20
-26.75686102293834
 30
0.0
 10
126.7047553555431
 20
-26.75686102293834
 30
0.0
 10
126.2548619220102
 20
-26.75686102293834
 30
0.0
 10
126.2548619220102
 20
-26.75686102293834
 30
0.0
  0
SPLINE
  5
71
330
1F
100
AcDbEntity
  8
Lager 1
 62
   250
420
  1842203
370
    35
100
AcDbSpline
210
0.0
220
0.0
230
1.0
 70
    11
 71
     3
 72
    20
 73
    16
 74
     0
 42
0.0000000001
 43
0.0000000001
 12
1.0
 22
0.0
 32
0.0
 13
1.0
 23
0.0
 33
0.0
 40
0.0
 40
0.0
 40
0.0
 40
0.0
 40
1.0
 40
1.0
 40
1.0
 40
2.0
 40
2.0
 40
2.0
 40
3.0
 40
3.0
 40
3.0
 40
4.0
 40
4.0
 40
4.0
 40
5.0
 40
5.0
 40
5.0
 40
5.0
 10
125.6901449405186
 20
-24.80083181118002
 30
0.0
 10
125.6901449405186
 20
-24.80083181118002
 30
0.0
 10
125.2019769909993
 20
-24.80083181118002
 30
0.0
 10
125.2019769909993
 20
-24.80083181118002
 30
0.0
 10
125.2019769909993
 20
-24.80083181118002
 30
0.0
 10
125.2019769909993
 20
-25.72579928086818
 30
0.0
 10
125.2019769909993
 20
-25.72579928086818
 30
0.0
 10
125.2019769909993
 20
-25.72579928086818
 30
0.0
 10
125.6901449405186
 20
-25.72579928086818
 30
0.0
 10
125.6901449405186
 20
-25.72579928086818
 30
0.0
 10
126.0561030319728
 20
-25.72579928086818
 30
0.0
 10
126.2454611636981
 20
-25.55322821755891
 30
0.0
 10
126.2454611636981
 20
-25.26146896849717
 30
0.0
 10
126.2454611636981
 20
-24.96970971944056
 30
0.0
 10
126.0561030319728
 20
-24.80083181118002
 30
0.0
 10
125.6901449405186
 20
-24.80083181118002
 30
0.0
  0
SPLINE
  5
72
330
1F
100
AcDbEntity
  8
Lager 1
 62
   250
420
  1842203
370
    35
100
AcDbSpline
210
0.0
220
0.0
230
1.0
 70
    11
 71
     3
 72
    32
 73
    28
 74
     0
 42
0.0000000001
 43
0.0000000001
 12
1.0
 22
0.0
 32
0.0
 13
1.0
 23
0.0
 33
0.0
 40
0.0
 40
0.0
 40
0.0
 40
0.0
 40
1.0
 40
1.0
 40
1.0
 40
2.0
 40
2.0
 40
2.0
 40
3.0
 40
3.0
 40
3.0
 40
4.0
 40
4.0
 40
4.0
 40
5.0
 40
5.0
 40
5.0
 40
6.0
 40
6.0
 40
6.0
 40
7.0
 40
7.0
 40
7.0
 40
8.0
 40
8.0
 40
8.0
 40
9.0
 40
9.0
 40
9.0
 40
9.0
 10
129.0636742092686
 20
-25.47030009958529
 30
0.0
 10
129.0636742092686
 20
-25.47030009958529
 30
0.0
 10
129.0636742092686
 20
-26.75686102293834
 30
0.0
 10
129.0636742092686
 20
-26.75686102293834
 30
0.0
 10
129.0636742092686
 20
-26.75686102293834
 30
0.0
 10
128.6460119470943
 20
-26.75686102293834
 30
0.0
 10
128.6460119470943
 20
-26.75686102293834
 30
0.0
 10
128.6460119470943
 20
-26.75686102293834
 30
0.0
 10
128.6460119470943
 20
-26.15991287008822
 30
0.0
 10
128.6460119470943
 20
-26.15991287008822
 30
0.0
 10
128.6460119470943
 20
-26.15991287008822
 30
0.0
 10
127.4776319853854
 20
-26.15991287008822
 30
0.0
 10
127.4776319853854
 20
-26.15991287008822
 30
0.0
 10
127.4776319853854
 20
-26.15991287008822
 30
0.0
 10
127.4776319853854
 20
-26.75686102293834
 30
0.0
 10
127.4776319853854
 20
-26.75686102293834
 30
0.0
 10
127.4776319853854
 20
-26.75686102293834
 30
0.0
 10
127.0666845505782
 20
-26.75686102293834
 30
0.0
 10
127.0666845505782
 20
-26.75686102293834
 30
0.0
 10
127.0666845505782
 20
-26.75686102293834
 30
0.0
 10
127.0666845505782
 20
-25.47030009958529
 30
0.0
 10
127.0666845505782
 20
-25.47030009958529
 30
0.0
 10
127.0666845505782
 20
-24.77430824308549
 30
0.0
 10
127.4675597443372
 20
-24.40297828973628
 30
0.0
 10
128.0651793799221
 20
-24.40297828973628
 30
0.0
 10
128.6621275327722
 20
-24.40297828973628
 30
0.0
 10
129.0636742092686
 20
-24.77430824308549
 30
0.0
 10
129.0636742092686
 20
-25.47030009958529
 30
0.0
  0
SPLINE
  5
73
330
1F
100
AcDbEntity
  8
Lager 1
 62
   250
420
  1842203
370
    35
100
AcDbSpline
210
0.0
220
0.0
230
1.0
 70
    11
 71
     3
 72
    20
 73
    16
 74
     0
 42
0.0000000001
 43
0.0000000001
 12
1.0
 22
0.0
 32
0.0
 13
1.0
 23
0.0
 33
0.0
 40
0.0
 40
0.0
 40
0.0
 40
0.0
 40
1.0
 40
1.0
 40
1.0
 40
2.0
 40
2.0
 40
2.0
 40
3.0
 40
3.0
 40
3.0
 40
4.0
 40
4.0
 40
4.0
 40
5.0
 40
5.0
 40
5.0
 40
5.0
 10
128.6460119470943
 20
-25.79865515779105
 30
0.0
 10
128.6460119470943
 20
-25.79865515779105
 30
0.0
 10
128.6460119470943
 20
-25.43068261812542
 30
0.0
 10
128.6460119470943
 20
-25.43068261812542
 30
0.0
 10
128.6460119470943
 20
-24.98985420153821
 30
0.0
 10
128.4183792993826
 20
-24.78068732908237
 30
0.0
 10
128.0618219662392
 20
-24.78068732908237
 30
0.0
 10
127.7052646330984
 20
-24.78068732908237
 30
0.0
 10
127.4776319853854
 20
-24.98985420153821
 30
0.0
 10
127.4776319853854
 20
-25.43068261812542
 30
0.0
 10
127.4776319853854
 20
-25.43068261812542
 30
0.0
 10
127.4776319853854
 20
-25.79865515779105
 30
0.0
 10
127.4776319853854
 20
-25.79865515779105
 30
0.0
 10
127.4776319853854
 20
-25.79865515779105
 30
0.0
 10
128.6460119470943
 20
-25.79865515779105
 30
0.0
 10
128.6460119470943
 20
-25.79865515779105
 30
0.0
  0
SPLINE
  5
74
330
1F
100
AcDbEntity
  8
Lager 1
 62
   250
420
  1842203
370
    35
100
AcDbSpline
210
0.0
220
0.0
230
1.0
 70
    11
 71
     3
 72
    41
 73
    37
 74
     0
 42
0.0000000001
 43
0.0000000001
 12
1.0
 22
0.0
 32
0.0
 13
1.0
 23
0.0
 33
0.0
 40
0.0
 40
0.0
 40
0.0
 40
0.0
 40
1.0
 40
1.0
 40
1.0
 40
2.0
 40
2.0
 40
2.0
 40
3.0
 40
3.0
 40
3.0
 40
4.0
 40
4.0
 40
4.0
 40
5.0
 40
5.0
 40
5.0
 40
6.0
 40
6.0
 40
6.0
 40
7.0
 40
7.0
 40
7.0
 40
8.0
 40
8.0
 40
8.0
 40
9.0
 40
9.0
 40
9.0
 40
10.0
 40
10.0
 40
10.0
 40
11.0
 40
11.0
 40
11.0
 40
12.0
 40
12.0
 40
12.0
 40
12.0
 10
130.0003926268461
 20
-25.30477960500963
 30
0.0
 10
130.0003926268461
 20
-25.30477960500963
 30
0.0
 10
130.0003926268461
 20
-25.50353849504829
 30
0.0
 10
130.0003926268461
 20
-25.50353849504829
 30
0.0
 10
130.0003926268461
 20
-25.50353849504829
 30
0.0
 10
130.9800859395664
 20
-25.50353849504829
 30
0.0
 10
130.9800859395664
 20
-25.50353849504829
 30
0.0
 10
130.9800859395664
 20
-25.50353849504829
 30
0.0
 10
130.9800859395664
 20
-25.86848936239933
 30
0.0
 10
130.9800859395664
 20
-25.86848936239933
 30
0.0
 10
130.9800859395664
 20
-25.86848936239933
 30
0.0
 10
130.0003926268461
 20
-25.86848936239933
 30
0.0
 10
130.0003926268461
 20
-25.86848936239933
 30
0.0
 10
130.0003926268461
 20
-25.86848936239933
 30
0.0
 10
130.0003926268461
 20
-26.75686102293834
 30
0.0
 10
130.0003926268461
 20
-26.75686102293834
 30
0.0
 10
130.0003926268461
 20
-26.75686102293834
 30
0.0
 10
129.5834018474078
 20
-26.75686102293834
 30
0.0
 10
129.5834018474078
 20
-26.75686102293834
 30
0.0
 10
129.5834018474078
 20
-26.75686102293834
 30
0.0
 10
129.5834018474078
 20
-25.30477960500963
 30
0.0
 10
129.5834018474078
 20
-25.30477960500963
 30
0.0
 10
129.5834018474078
 20
-24.74106984762378
 30
0.0
 10
129.9527173525469
 20
-24.40297828973628
 30
0.0
 10
130.5657810910743
 20
-24.40297828973628
 30
0.0
 10
130.8196015655148
 20
-24.40297828973628
 30
0.0
 10
131.0505916269107
 20
-24.45938283961279
 30
0.0
 10
131.2171193455902
 20
-24.57185619799553
 30
0.0
 10
131.2171193455902
 20
-24.57185619799553
 30
0.0
 10
131.0855087292142
 20
-24.92337741061352
 30
0.0
 10
131.0855087292142
 20
-24.92337741061352
 30
0.0
 10
130.9411399408426
 20
-24.82064055191125
 30
0.0
 10
130.7611825674281
 20
-24.78068732908237
 30
0.0
 10
130.5845826077005
 20
-24.78068732908237
 30
0.0
 10
130.1964655859379
 20
-24.78068732908237
 30
0.0
 10
130.0003926268461
 20
-24.96333063344368
 30
0.0
 10
130.0003926268461
 20
-25.30477960500963
 30
0.0
  0
POLYLINE
  5
75
330
1F
100
AcDbEntity
  8
Lager 1
 62
   250
420
  1842203
370
    35
100
AcDb2dPolyline
 66
     1
 10
0.0
 20
0.0
 30
0.0
  0
VERTEX
  5
76
330
75
100
AcDbEntity
  8
Lager 1
 62
   250
420
  1842203
370
    35
100
AcDbVertex
100
AcDb2dVertex
 10
132.1739822452653
 20
-24.79747439749901
 30
0.0
  0
VERTEX
  5
77
330
75
100
AcDbEntity
  8
Lager 1
 62
   250
420
  1842203
370
    35
100
AcDbVertex
100
AcDb2dVertex
 10
132.1739822452653
 20
-26.39560331063988
 30
0.0
  0
VERTEX
  5
78
330
75
100
AcDbEntity
  8
Lager 1
 62
   250
420
  1842203
370
    35
100
AcDbVertex
100
AcDb2dVertex
 10
132.58761561102
 20
-26.39560331063988
 30
0.0
  0
VERTEX
  5
79
330
75
100
AcDbEntity
  8
Lager 1
 62
   250
420
  1842203
370
    35
100
AcDbVertex
100
AcDb2dVertex
 10
132.58761561102
 20
-26.75686102293834
 30
0.0
  0
VERTEX
  5
7A
330
75
100
AcDbEntity
  8
Lager 1
 62
   250
420
  1842203
370
    35
100
AcDbVertex
100
AcDb2dVertex
 10
131.3453725482845
 20
-26.75686102293834
 30
0.0
  0
VERTEX
  5
7B
330
75
100
AcDbEntity
  8
Lager 1
 62
   250
420
  1842203
370
    35
100
AcDbVertex
100
AcDb2dVertex
 10
131.3453725482845
 20
-26.39560331063988
 30
0.0
  0
VERTEX
  5
7C
330
75
100
AcDbEntity
  8
Lager 1
 62
   250
420
  1842203
370
    35
100
AcDbVertex
100
AcDb2dVertex
 10
131.759677396774
 20
-26.39560331063988
 30
0.0
  0
VERTEX
  5
7D
330
75
100
AcDbEntity
  8
Lager 1
 62
   250
420
  1842203
370
    35
100
AcDbVertex
100
AcDb2dVertex
 10
131.759677396774
 20
-24.79747439749901
 30
0.0
  0
VERTEX
  5
7E
330
75
100
AcDbEntity
  8
Lager 1
 62
   250
420
  1842203
370
    35
100
AcDbVertex
100
AcDb2dVertex
 10
131.3453725482845
 20
-24.79747439749901
 30
0.0
  0
VERTEX
  5
7F
330
75
100
AcDbEntity
  8
Lager 1
 62
   250
420
  1842203
370
    35
100
AcDbVertex
100
AcDb2dVertex
 10
131.3453725482845
 20
-24.43621668519927
 30
0.0
  0
VERTEX
  5
80
330
75
100
AcDbEntity
  8
Lager 1
 62
   250
420
  1842203
370
    35
100
AcDbVertex
100
AcDb2dVertex
 10
132.58761561102
 20
-24.43621668519927
 30
0.0
  0
VERTEX
  5
81
330
75
100
AcDbEntity
  8
Lager 1
 62
   250
420
  1842203
370
    35
100
AcDbVertex
100
AcDb2dVertex
 10
132.58761561102
 20
-24.79747439749901
 30
0.0
  0
VERTEX
  5
82
330
75
100
AcDbEntity
  8
Lager 1
 62
   250
420
  1842203
370
    35
100
AcDbVertex
100
AcDb2dVertex
 10
132.1739822452653
 20
-24.79747439749901
 30
0.0
  0
SEQEND
  5
83
330
75
100
AcDbEntity
  8
Lager 1
 62
   250
420
  1842203
370
    35
  0
POLYLINE
  5
84
330
1F
100
AcDbEntity
  8
Lager 1
 62
   250
420
  1842203
370
    35
100
AcDb2dPolyline
 66
     1
 10
0.0
 20
0.0
 30
0.0
  0
VERTEX
  5
85
330
84
100
AcDbEntity
  8
Lager 1
 62
   250
420
  1842203
370
    35
100
AcDbVertex
100
AcDb2dVertex
 10
133.7499522280991
 20
-25.78556124442571
 30
0.0
  0
VERTEX
  5
86
330
84
100
AcDbEntity
  8
Lager 1
 62
   250
420
  1842203
370
    35
100
AcDbVertex
100
AcDb2dVertex
 10
133.3933948949582
 20
-26.16327028377052
 30
0.0
  0
VERTEX
  5
87
330
84
100
AcDbEntity
  8
Lager 1
 62
   250
420
  1842203
370
    35
100
AcDbVertex
100
AcDb2dVertex
 10
133.3933948949582
 20
-26.75686102293834
 30
0.0
  0
VERTEX
  5
88
330
84
100
AcDbEntity
  8
Lager 1
 62
   250
420
  1842203
370
    35
100
AcDbVertex
100
AcDb2dVertex
 10
132.9757326327839
 20
-26.75686102293834
 30
0.0
  0
VERTEX
  5
89
330
84
100
AcDbEntity
  8
Lager 1
 62
   250
420
  1842203
370
    35
100
AcDbVertex
100
AcDb2dVertex
 10
132.9757326327839
 20
-24.43621668519927
 30
0.0
  0
VERTEX
  5
8A
330
84
100
AcDbEntity
  8
Lager 1
 62
   250
420
  1842203
370
    35
100
AcDbVertex
100
AcDb2dVertex
 10
133.3933948949582
 20
-24.43621668519927
 30
0.0
  0
VERTEX
  5
8B
330
84
100
AcDbEntity
  8
Lager 1
 62
   250
420
  1842203
370
    35
100
AcDbVertex
100
AcDb2dVertex
 10
133.3933948949582
 20
-25.62641983584949
 30
0.0
  0
VERTEX
  5
8C
330
84
100
AcDbEntity
  8
Lager 1
 62
   250
420
  1842203
370
    35
100
AcDbVertex
100
AcDb2dVertex
 10
134.5040273413178
 20
-24.43621668519927
 30
0.0
  0
VERTEX
  5
8D
330
84
100
AcDbEntity
  8
Lager 1
 62
   250
420
  1842203
370
    35
100
AcDbVertex
100
AcDb2dVertex
 10
134.9727222914743
 20
-24.43621668519927
 30
0.0
  0
VERTEX
  5
8E
330
84
100
AcDbEntity
  8
Lager 1
 62
   250
420
  1842203
370
    35
100
AcDbVertex
100
AcDb2dVertex
 10
134.0292890465315
 20
-25.4736575132676
 30
0.0
  0
VERTEX
  5
8F
330
84
100
AcDbEntity
  8
Lager 1
 62
   250
420
  1842203
370
    35
100
AcDbVertex
100
AcDb2dVertex
 10
135.0304698068229
 20
-26.75686102293834
 30
0.0
  0
VERTEX
  5
90
330
84
100
AcDbEntity
  8
Lager 1
 62
   250
420
  1842203
370
    35
100
AcDbVertex
100
AcDb2dVertex
 10
134.5429733400416
 20
-26.75686102293834
 30
0.0
  0
VERTEX
  5
91
330
84
100
AcDbEntity
  8
Lager 1
 62
   250
420
  1842203
370
    35
100
AcDbVertex
100
AcDb2dVertex
 10
133.7499522280991
 20
-25.78556124442571
 30
0.0
  0
SEQEND
  5
92
330
84
100
AcDbEntity
  8
Lager 1
 62
   250
420
  1842203
370
    35
  0
INSERT
  5
94
330
1F
100
AcDbEntity
  8
Lager 1
100
AcDbBlockReference
  2
block 3
 10
0.0
 20
0.0
 30
0.0
  0
ENDSEC
  0
SECTION
  2
OBJECTS
  0
DICTIONARY
  5
C
330
0
100
AcDbDictionary
281
     1
  3
ACAD_GROUP
350
D
  3
ACAD_LAYOUT
350
1A
  3
ACAD_MATERIAL
350
3B
  3
ACAD_MLEADERSTYLE
350
99
  3
ACAD_MLINESTYLE
350
17
  3
ACAD_PLOTSETTINGS
350
19
  3
ACAD_PLOTSTYLENAME
350
E
  3
ACAD_TABLESTYLE
350
98
  3
ACAD_VISUALSTYLE
350
2A
  0
SUN
  5
3F
330
29
100
AcDbSun
 90
        1
290
     0
 63
     7
421
 16777215
 40
1.0
291
     1
 91
  2455826
 92
 54000000
292
     0
 70
     2
 71
   256
280
     1
  0
DICTIONARY
  5
D
102
{ACAD_REACTORS
330
C
102
}
330
C
100
AcDbDictionary
281
     1
  0
DICTIONARY
  5
1A
102
{ACAD_REACTORS
330
C
102
}
330
C
100
AcDbDictionary
281
     1
  3
Layout1
350
1E
  3
Layout2
350
26
  3
Model
350
22
  0
DICTIONARY
  5
3B
102
{ACAD_REACTORS
330
C
102
}
330
C
100
AcDbDictionary
281
     1
  3
ByBlock
350
3D
  3
ByLayer
350
3C
  3
Global
350
3E
  0
DICTIONARY
  5
99
102
{ACAD_REACTORS
330
C
102
}
330
C
100
AcDbDictionary
281
     1
  0
DICTIONARY
  5
17
102
{ACAD_REACTORS
330
C
102
}
330
C
100
AcDbDictionary
281
     1
  3
Standard
350
18
  0
DICTIONARY
  5
19
102
{ACAD_REACTORS
330
C
102
}
330
C
100
AcDbDictionary
281
     1
  0
ACDBDICTIONARYWDFLT
  5
E
102
{ACAD_REACTORS
330
C
102
}
330
C
100
AcDbDictionary
281
     1
  3
Normal
350
F
100
AcDbDictionaryWithDefault
340
F
  0
DICTIONARY
  5
98
102
{ACAD_REACTORS
330
C
102
}
330
C
100
AcDbDictionary
281
     1
  0
DICTIONARY
  5
2A
102
{ACAD_REACTORS
330
C
102
}
330
C
100
AcDbDictionary
281
     1
  3
2dWireframe
350
2F
  3
3D Hidden
350
31
  3
3dWireframe
350
30
  3
Basic
350
32
  3
Brighten
350
36
  3
ColorChange
350
3A
  3
Conceptual
350
34
  3
Dim
350
35
  3
Facepattern
350
39
  3
Flat
350
2B
  3
FlatWithEdges
350
2C
  3
Gouraud
350
2D
  3
GouraudWithEdges
350
2E
  3
Linepattern
350
38
  3
Realistic
350
33
  3
Thicken
350
37
  0
LAYOUT
  5
1E
102
{ACAD_REACTORS
330
1A
102
}
330
1A
100
AcDbPlotSettings
  1

  2
none_device
  4

  6

 40
0.0
 41
0.0
 42
0.0
 43
0.0
 44
0.0
 45
0.0
 46
0.0
 47
0.0
 48
0.0
 49
0.0
140
0.0
141
0.0
142
1.0
143
1.0
 70
   688
 72
     0
 73
     0
 74
     5
  7

 75
    16
 76
     0
 77
     2
 78
   300
147
1.0
148
0.0
149
0.0
100
AcDbLayout
  1
Layout1
 70
     1
 71
     1
 10
0.0
 20
0.0
 11
12.0
 21
9.0
 12
0.0
 22
0.0
 32
0.0
 14
1.000000000000000E+20
 24
1.000000000000000E+20
 34
1.000000000000000E+20
 15
-1.000000000000000E+20
 25
-1.000000000000000E+20
 35
-1.000000000000000E+20
146
0.0
 13
0.0
 23
0.0
 33
0.0
 16
1.0
 26
0.0
 36
0.0
 17
0.0
 27
1.0
 37
0.0
 76
     0
330
1B
  0
LAYOUT
  5
26
102
{ACAD_REACTORS
330
1A
102
}
330
1A
100
AcDbPlotSettings
  1

  2
none_device
  4

  6

 40
0.0
 41
0.0
 42
0.0
 43
0.0
 44
0.0
 45
0.0
 46
0.0
 47
0.0
 48
0.0
 49
0.0
140
0.0
141
0.0
142
1.0
143
1.0
 70
   688
 72
     0
 73
     0
 74
     5
  7

 75
    16
 76
     0
 77
     2
 78
   300
147
1.0
148
0.0
149
0.0
100
AcDbLayout
  1
Layout2
 70
     1
 71
     2
 10
0.0
 20
0.0
 11
0.0
 21
0.0
 12
0.0
 22
0.0
 32
0.0
 14
0.0
 24
0.0
 34
0.0
 15
0.0
 25
0.0
 35
0.0
146
0.0
 13
0.0
 23
0.0
 33
0.0
 16
1.0
 26
0.0
 36
0.0
 17
0.0
 27
1.0
 37
0.0
 76
     0
330
23
  0
LAYOUT
  5
22
102
{ACAD_REACTORS
330
1A
102
}
330
1A
100
AcDbPlotSettings
  1

  2
none_device
  4

  6

 40
0.0
 41
0.0
 42
0.0
 43
0.0
 44
0.0
 45
0.0
 46
0.0
 47
0.0
 48
0.0
 49
0.0
140
0.0
141
0.0
142
1.0
143
1.0
 70
  1712
 72
     0
 73
     0
 74
     0
  7

 75
     0
 76
     0
 77
     2
 78
   300
147
1.0
148
0.0
149
0.0
100
AcDbLayout
  1
Model
 70
     1
 71
     0
 10
0.0
 20
0.0
 11
12.0
 21
9.0
 12
0.0
 22
0.0
 32
0.0
 14
1.000000000000000E+20
 24
1.000000000000000E+20
 34
1.000000000000000E+20
 15
-1.000000000000000E+20
 25
-1.000000000000000E+20
 35
-1.000000000000000E+20
146
0.0
 13
0.0
 23
0.0
 33
0.0
 16
1.0
 26
0.0
 36
0.0
 17
0.0
 27
1.0
 37
0.0
 76
     0
330
1F
331
29
  0
MATERIAL
  5
3D
102
{ACAD_REACTORS
330
3B
102
}
330
3B
100
AcDbMaterial
  1
ByBlock
 72
     1
 94
      127
  0
MATERIAL
  5
3C
102
{ACAD_REACTORS
330
3B
102
}
330
3B
100
AcDbMaterial
  1
ByLayer
 72
     1
 94
      127
  0
MATERIAL
  5
3E
102
{ACAD_REACTORS
330
3B
102
}
330
3B
100
AcDbMaterial
  1
Global
 72
     1
 94
      127
  0
MLINESTYLE
  5
18
102
{ACAD_REACTORS
330
17
102
}
330
17
100
AcDbMlineStyle
  2
Standard
 70
     0
  3

 62
   256
 51
90.0
 52
90.0
 71
     2
 49
0.5
 62
   256
  6
BYLAYER
 49
-0.5
 62
   256
  6
BYLAYER
  0
ACDBPLACEHOLDER
  5
F
102
{ACAD_REACTORS
330
E
102
}
330
E
  0
VISUALSTYLE
  5
2F
102
{ACAD_REACTORS
330
2A
102
}
330
2A
100
AcDbVisualStyle
  2
2dWireframe
 70
     4
177
     2
291
     0
 71
     0
176
     1
 72
     2
176
     1
 73
     0
176
     1
 90
        0
176
     1
 40
-0.6
176
     1
 41
-30.0
176
     1
 62
     5
 63
     7
421
 16777215
176
     1
 74
     1
176
     1
 91
        4
176
     1
 64
     7
176
     1
 65
   257
176
     1
 75
     1
176
     1
175
     1
176
     1
 42
1.0
176
     1
 92
        0
176
     1
 66
   257
176
     1
 43
1.0
176
     1
 76
     1
176
     1
 77
     6
176
     1
 78
     2
176
     1
 67
     7
176
     1
 79
     5
176
     1
170
     0
176
     1
171
     0
176
     1
290
     0
176
     1
 93
        1
176
     1
 44
0.0
176
     1
173
     0
176
     1
  0
VISUALSTYLE
  5
31
102
{ACAD_REACTORS
330
2A
102
}
330
2A
100
AcDbVisualStyle
  2
3D Hidden
 70
     6
177
     2
291
     0
 71
     1
176
     1
 72
     2
176
     1
 73
     2
176
     1
 90
        0
176
     1
 40
-0.6
176
     1
 41
-30.0
176
     1
 62
     5
 63
     7
421
 16777215
176
     1
 74
     2
176
     1
 91
        2
176
     1
 64
     7
176
     1
 65
   257
176
     1
 75
     2
176
     1
175
     1
176
     1
 42
40.0
176
     1
 92
        0
176
     1
 66
   257
176
     1
 43
1.0
176
     1
 76
     1
176
     1
 77
     6
176
     1
 78
     2
176
     1
 67
     7
176
     1
 79
     3
176
     1
170
     0
176
     1
171
     0
176
     1
290
     0
176
     1
 93
        1
176
     1
 44
0.0
176
     1
173
     0
176
     1
  0
VISUALSTYLE
  5
30
102
{ACAD_REACTORS
330
2A
102
}
330
2A
100
AcDbVisualStyle
  2
3dWireframe
 70
     5
177
     2
291
     0
 71
     0
176
     1
 72
     2
176
     1
 73
     0
176
     1
 90
        0
176
     1
 40
-0.6
176
     1
 41
-30.0
176
     1
 62
     5
 63
     7
421
 16777215
176
     1
 74
     1
176
     1
 91
        4
176
     1
 64
     7
176
     1
 65
   257
176
     1
 75
     1
176
     1
175
     1
176
     1
 42
1.0
176
     1
 92
        0
176
     1
 66
   257
176
     1
 43
1.0
176
     1
 76
     1
176
     1
 77
     6
176
     1
 78
     2
176
     1
 67
     7
176
     1
 79
     5
176
     1
170
     0
176
     1
171
     0
176
     1
290
     0
176
     1
 93
        1
176
     1
 44
0.0
176
     1
173
     0
176
     1
  0
VISUALSTYLE
  5
32
102
{ACAD_REACTORS
330
2A
102
}
330
2A
100
AcDbVisualStyle
  2
Basic
 70
     7
177
     2
291
     1
 71
     1
176
     1
 72
     0
176
     1
 73
     1
176
     1
 90
        0
176
     1
 40
-0.6
176
     1
 41
-30.0
176
     1
 62
     5
 63
     7
421
 16777215
176
     1
 74
     0
176
     1
 91
        4
176
     1
 64
     7
176
     1
 65
   257
176
     1
 75
     1
176
     1
175
     1
176
     1
 42
1.0
176
     1
 92
        8
176
     1
 66
     7
176
     1
 43
1.0
176
     1
 76
     1
176
     1
 77
     6
176
     1
 78
     2
176
     1
 67
     7
176
     1
 79
     5
176
     1
170
     0
176
     1
171
     0
176
     1
290
     0
176
     1
 93
        1
176
     1
 44
0.0
176
     1
173
     0
176
     1
  0
VISUALSTYLE
  5
36
102
{ACAD_REACTORS
330
2A
102
}
330
2A
100
AcDbVisualStyle
  2
Brighten
 70
    12
177
     2
291
     1
 71
     2
176
     1
 72
     2
176
     1
 73
     0
176
     1
 90
        0
176
     1
 40
-0.6
176
     1
 41
-30.0
176
     1
 62
     5
 63
     7
421
 16777215
176
     1
 74
     1
176
     1
 91
        4
176
     1
 64
     7
176
     1
 65
   257
176
     1
 75
     1
176
     1
175
     1
176
     1
 42
1.0
176
     1
 92
        8
176
     1
 66
     7
176
     1
 43
1.0
176
     1
 76
     1
176
     1
 77
     6
176
     1
 78
     2
176
     1
 67
     7
176
     1
 79
     5
176
     1
170
     0
176
     1
171
     0
176
     1
290
     0
176
     1
 93
        1
176
     1
 44
50.0
176
     1
173
     0
176
     1
  0
VISUALSTYLE
  5
3A
102
{ACAD_REACTORS
330
2A
102
}
330
2A
100
AcDbVisualStyle
  2
ColorChange
 70
    16
177
     2
291
     1
 71
     2
176
     1
 72
     2
176
     1
 73
     3
176
     1
 90
        0
176
     1
 40
-0.6
176
     1
 41
-30.0
176
     1
 62
     5
 63
     8
421
  8421504
176
     1
 74
     1
176
     1
 91
        4
176
     1
 64
     7
176
     1
 65
   257
176
     1
 75
     1
176
     1
175
     1
176
     1
 42
1.0
176
     1
 92
        8
176
     1
 66
     8
424
  8421504
176
     1
 43
1.0
176
     1
 76
     1
176
     1
 77
     6
176
     1
 78
     2
176
     1
 67
     7
176
     1
 79
     5
176
     1
170
     0
176
     1
171
     0
176
     1
290
     0
176
     1
 93
        1
176
     1
 44
0.0
176
     1
173
     0
176
     1
  0
VISUALSTYLE
  5
34
102
{ACAD_REACTORS
330
2A
102
}
330
2A
100
AcDbVisualStyle
  2
Conceptual
 70
     9
177
     2
291
     0
 71
     3
176
     1
 72
     2
176
     1
 73
     0
176
     1
 90
        0
176
     1
 40
-0.6
176
     1
 41
-30.0
176
     1
 62
     5
 63
     7
421
 16777215
176
     1
 74
     2
176
     1
 91
        2
176
     1
 64
     7
176
     1
 65
   257
176
     1
 75
     1
176
     1
175
     1
176
     1
 42
40.0
176
     1
 92
        8
176
     1
 66
     7
176
     1
 43
1.0
176
     1
 76
     1
176
     1
 77
     6
176
     1
 78
     2
176
     1
 67
     7
176
     1
 79
     3
176
     1
170
     0
176
     1
171
     0
176
     1
290
     0
176
     1
 93
        1
176
     1
 44
0.0
176
     1
173
     0
176
     1
  0
VISUALSTYLE
  5
35
102
{ACAD_REACTORS
330
2A
102
}
330
2A
100
AcDbVisualStyle
  2
Dim
 70
    11
177
     2
291
     1
 71
     2
176
     1
 72
     2
176
     1
 73
     0
176
     1
 90
        0
176
     1
 40
-0.6
176
     1
 41
-30.0
176
     1
 62
     5
 63
     7
421
 16777215
176
     1
 74
     1
176
     1
 91
        4
176
     1
 64
     7
176
     1
 65
   257
176
     1
 75
     1
176
     1
175
     1
176
     1
 42
1.0
176
     1
 92
        8
176
     1
 66
     7
176
     1
 43
1.0
176
     1
 76
     1
176
     1
 77
     6
176
     1
 78
     2
176
     1
 67
     7
176
     1
 79
     5
176
     1
170
     0
176
     1
171
     0
176
     1
290
     0
176
     1
 93
        1
176
     1
 44
-50.0
176
     1
173
     0
176
     1
  0
VISUALSTYLE
  5
39
102
{ACAD_REACTORS
330
2A
102
}
330
2A
100
AcDbVisualStyle
  2
Facepattern
 70
    15
177
     2
291
     1
 71
     2
176
     1
 72
     2
176
     1
 73
     0
176
     1
 90
        0
176
     1
 40
-0.6
176
     1
 41
-30.0
176
     1
 62
     5
 63
     7
421
 16777215
176
     1
 74
     1
176
     1
 91
        4
176
     1
 64
     7
176
     1
 65
   257
176
     1
 75
     1
176
     1
175
     1
176
     1
 42
1.0
176
     1
 92
        8
176
     1
 66
     7
176
     1
 43
1.0
176
     1
 76
     1
176
     1
 77
     6
176
     1
 78
     2
176
     1
 67
     7
176
     1
 79
     5
176
     1
170
     0
176
     1
171
     0
176
     1
290
     0
176
     1
 93
        1
176
     1
 44
0.0
176
     1
173
     0
176
     1
  0
VISUALSTYLE
  5
2B
102
{ACAD_REACTORS
330
2A
102
}
330
2A
100
AcDbVisualStyle
  2
Flat
 70
     0
177
     2
291
     1
 71
     2
176
     1
 72
     1
176
     1
 73
     1
176
     1
 90
        2
176
     1
 40
-0.6
176
     1
 41
30.0
176
     1
 62
     5
 63
     7
421
 16777215
176
     1
 74
     0
176
     1
 91
        4
176
     1
 64
     7
176
     1
 65
   257
176
     1
 75
     1
176
     1
175
     1
176
     1
 42
1.0
176
     1
 92
        8
176
     1
 66
     7
176
     1
 43
1.0
176
     1
 76
     1
176
     1
 77
     6
176
     1
 78
     2
176
     1
 67
     7
176
     1
 79
     5
176
     1
170
     0
176
     1
171
     0
176
     1
290
     0
176
     1
 93
       13
176
     1
 44
0.0
176
     1
173
     0
176
     1
  0
VISUALSTYLE
  5
2C
102
{ACAD_REACTORS
330
2A
102
}
330
2A
100
AcDbVisualStyle
  2
FlatWithEdges
 70
     1
177
     2
291
     1
 71
     2
176
     1
 72
     1
176
     1
 73
     1
176
     1
 90
        2
176
     1
 40
-0.6
176
     1
 41
30.0
176
     1
 62
     5
 63
     7
421
 16777215
176
     1
 74
     1
176
     1
 91
        4
176
     1
 64
     7
176
     1
 65
   257
176
     1
 75
     1
176
     1
175
     1
176
     1
 42
1.0
176
     1
 92
        0
176
     1
 66
   257
176
     1
 43
1.0
176
     1
 76
     1
176
     1
 77
     6
176
     1
 78
     2
176
     1
 67
     7
176
     1
 79
     5
176
     1
170
     0
176
     1
171
     0
176
     1
290
     0
176
     1
 93
       13
176
     1
 44
0.0
176
     1
173
     0
176
     1
  0
VISUALSTYLE
  5
2D
102
{ACAD_REACTORS
330
2A
102
}
330
2A
100
AcDbVisualStyle
  2
Gouraud
 70
     2
177
     2
291
     1
 71
     2
176
     1
 72
     2
176
     1
 73
     1
176
     1
 90
        2
176
     1
 40
-0.6
176
     1
 41
30.0
176
     1
 62
     5
 63
     7
421
 16777215
176
     1
 74
     0
176
     1
 91
        4
176
     1
 64
     7
176
     1
 65
   257
176
     1
 75
     1
176
     1
175
     1
176
     1
 42
1.0
176
     1
 92
        0
176
     1
 66
     7
176
     1
 43
1.0
176
     1
 76
     1
176
     1
 77
     6
176
     1
 78
     2
176
     1
 67
     7
176
     1
 79
     5
176
     1
170
     0
176
     1
171
     0
176
     1
290
     0
176
     1
 93
       13
176
     1
 44
0.0
176
     1
173
     0
176
     1
  0
VISUALSTYLE
  5
2E
102
{ACAD_REACTORS
330
2A
102
}
330
2A
100
AcDbVisualStyle
  2
GouraudWithEdges
 70
     3
177
     2
291
     1
 71
     2
176
     1
 72
     2
176
     1
 73
     1
176
     1
 90
        2
176
     1
 40
-0.6
176
     1
 41
30.0
176
     1
 62
     5
 63
     7
421
 16777215
176
     1
 74
     1
176
     1
 91
        4
176
     1
 64
     7
176
     1
 65
   257
176
     1
 75
     1
176
     1
175
     1
176
     1
 42
1.0
176
     1
 92
        0
176
     1
 66
   257
176
     1
 43
1.0
176
     1
 76
     1
176
     1
 77
     6
176
     1
 78
     2
176
     1
 67
     7
176
     1
 79
     5
176
     1
170
     0
176
     1
171
     0
176
     1
290
     0
176
     1
 93
       13
176
     1
 44
0.0
176
     1
173
     0
176
     1
  0
VISUALSTYLE
  5
38
102
{ACAD_REACTORS
330
2A
102
}
330
2A
100
AcDbVisualStyle
  2
Linepattern
 70
    14
177
     2
291
     1
 71
     2
176
     1
 72
     2
176
     1
 73
     0
176
     1
 90
        0
176
     1
 40
-0.6
176
     1
 41
-30.0
176
     1
 62
     5
 63
     7
421
 16777215
176
     1
 74
     1
176
     1
 91
        4
176
     1
 64
     7
176
     1
 65
   257
176
     1
 75
     7
176
     1
175
     7
176
     1
 42
1.0
176
     1
 92
        8
176
     1
 66
     7
176
     1
 43
1.0
176
     1
 76
     1
176
     1
 77
     6
176
     1
 78
     2
176
     1
 67
     7
176
     1
 79
     5
176
     1
170
     0
176
     1
171
     0
176
     1
290
     0
176
     1
 93
        1
176
     1
 44
0.0
176
     1
173
     0
176
     1
  0
VISUALSTYLE
  5
33
102
{ACAD_REACTORS
330
2A
102
}
330
2A
100
AcDbVisualStyle
  2
Realistic
 70
     8
177
     2
291
     0
 71
     2
176
     1
 72
     2
176
     1
 73
     0
176
     1
 90
        0
176
     1
 40
-0.6
176
     1
 41
-30.0
176
     1
 62
     5
 63
     7
421
 16777215
176
     1
 74
     1
176
     1
 91
        0
176
     1
 64
     7
176
     1
 65
   257
176
     1
 75
     1
176
     1
175
     1
176
     1
 42
1.0
176
     1
 92
        8
176
     1
 66
     8
424
  7895160
176
     1
 43
1.0
176
     1
 76
     1
176
     1
 77
     6
176
     1
 78
     2
176
     1
 67
     7
176
     1
 79
     5
176
     1
170
     0
176
     1
171
     0
176
     1
290
     0
176
     1
 93
       13
176
     1
 44
0.0
176
     1
173
     0
176
     1
  0
VISUALSTYLE
  5
37
102
{ACAD_REACTORS
330
2A
102
}
330
2A
100
AcDbVisualStyle
  2
Thicken
 70
    13
177
     2
291
     1
 71
     2
176
     1
 72
     2
176
     1
 73
     0
176
     1
 90
        0
176
     1
 40
-0.6
176
     1
 41
-30.0
176
     1
 62
     5
 63
     7
421
 16777215
176
     1
 74
     1
176
     1
 91
        4
176
     1
 64
     7
176
     1
 65
   257
176
     1
 75
     1
176
     1
175
     1
176
     1
 42
1.0
176
     1
 92
       12
176
     1
 66
     7
176
     1
 43
1.0
176
     1
 76
     1
176
     1
 77
     6
176
     1
 78
     2
176
     1
 67
     7
176
     1
 79
     5
176
     1
170
     0
176
     1
171
     0
176
     1
290
     0
176
     1
 93
        1
176
     1
 44
0.0
176
     1
173
     0
176
     1
  0
ENDSEC
  0
EOF
